<ttFont>
          <CharString index="0">
            36 394 hlineto
            240 -20 62 -234 -234 -19 -62 -240 vhcurveto
            -394 36 274 435 vlineto
            150 vmoveto
            -116 -435 116 vlineto
            191 13 47 204 204 14 -47 -191 vhcurveto
            return
          </CharString>
          <CharString index="1">
            rmoveto
            204 -11 58 -182 -212 -7 -65 -199 -210 27 -52 189 -18 callgsubr
            vhcurveto
            -100 callsubr
            return
          </CharString>
          <CharString index="2">
            rmoveto
            -54 callsubr
            -33 callgsubr
            -203 -12 -47 -217 -217 12 -45 203 hvcurveto
            32 vmoveto
            48 callgsubr
            return
          </CharString>
          <CharString index="3">
            rmoveto
            -31 hlineto
            -75 -2 -38 -96 -96 -1 38 75 vhcurveto
            -31 hlineto
            -82 0 -59 128 128 1 59 82 vhcurveto
            return
          </CharString>
          <CharString index="4">
            rmoveto
            27 hlineto
            126 133 rlineto
            -90 callsubr
            return
          </CharString>
          <CharString index="5">
            rmoveto
            -107 callsubr
            endchar
          </CharString>
          <CharString index="6">
            -99 callsubr
            32 vhcurveto
            return
          </CharString>
          <CharString index="7">
            -86 callsubr
            -196 243 rmoveto
            126 35 -19 -171 hvcurveto
            -21 -342 vlineto
            183 18 28 163 vhcurveto
            return
          </CharString>
          <CharString index="8">
            -98 callgsubr
            -41 callgsubr
            return
          </CharString>
          <CharString index="9">
            -122 58 -24 126 vhcurveto
            -1 32 rmoveto
            -120 -28 21 93 0 callgsubr
            hvcurveto
            213 -41 hlineto
            -50 -6 -36 -18 -40 vhcurveto
            -49 callsubr
            return
          </CharString>
          <CharString index="10">
            rmoveto
            46 hlineto
            -96 callsubr
            return
          </CharString>
          <CharString index="11">
            107 -47 callsubr
            -27 vlineto
            -103 -108 -103 108 rlineto
            -27 -5 hlineto
            return
          </CharString>
          <CharString index="12">
            5 vlineto
            -76 callgsubr
            126 -133 rlineto
            return
          </CharString>
          <CharString index="13">
            -27 hlineto
            -45 -5 -17 -30 -32 -35 12 11 -32 vhcurveto
            return
          </CharString>
          <CharString index="14">
            rmoveto
            -277 vlineto
            -6 -45 -83 -6 -48 hhcurveto
            -219 -26 40 278 315 51 3 225 44 76 -7 -9 58 hvcurveto
            32 vlineto
            10 -52 -88 8 -68 hhcurveto
            -233 -49 -39 -313 -313 46 -39 236 60 87 7 10 64 hvcurveto
            340 -230 -34 vlineto
            return
          </CharString>
          <CharString index="15">
            -180 0 35 195 195 0 37 180 180 0 return
          </CharString>
          <CharString index="16">
            -121 302 rlineto
            106 25 8 82 82 vvcurveto
            98 -7 99 -170 vhcurveto
            -306 -688 36 294 255 hlineto
            3 25 0 2 13 hvcurveto
            118 -296 rlineto
            -161 328 rmoveto
            -253 326 268 hlineto
            136 7 -68 -95 -95 -11 -68 -147 hvcurveto
            return
          </CharString>
          <CharString index="17">
            -36 callgsubr
            -88 callgsubr
            return
          </CharString>
          <CharString index="18">
            rmoveto
            -214 vlineto
            -191 -13 -47 -204 -204 -14 47 191 vhcurveto
            214 -36 -184 vlineto
            -234 19 -65 217 -3 vhcurveto
            -202 36 202 vlineto
            217 3 18 65 234 vvcurveto
            184 vlineto
            return
          </CharString>
          <CharString index="19">
            -21 vlineto
            63 15 19 72 hvcurveto
            75 -48 -65 20 -17 vlineto
            -49 -5 -14 -45 vhcurveto
            return
          </CharString>
          <CharString index="20">
            rmoveto
            107 6 23 70 70 -6 24 -107 -106 -6 -24 -70 -70 6 -23 106 hvcurveto
            28 vmoveto
            -78 -1 14 51 51 1 15 78 79 1 -15 -51 -51 -1 -14 -79 hvcurveto
            return
          </CharString>
          <CharString index="21">
            -83 callsubr
            hlineto
            return
          </CharString>
          <CharString index="22">
            rmoveto
            34 vlineto
            -6 -40 -60 -4 -46 hhcurveto
            -218 -23 25 293 293 23 25 218 44 58 -4 -6 40 hvcurveto
            32 vlineto
            7 -38 -63 5 -51 hhcurveto
            -228 -39 -38 -314 -318 39 -34 228 50 65 4 6 41 hvcurveto
            endchar
          </CharString>
          <CharString index="23">
            750 -97 callsubr
            return
          </CharString>
          <CharString index="24">
            33 vlineto
            -8 -46 -71 -6 -54 hhcurveto
            -168 -18 42 177 hvcurveto
            377 return
          </CharString>
          <CharString index="25">
            -10 callgsubr
            96 1 -38 -75 vhcurveto
            31 hlineto
            82 0 59 -128 -128 -1 -59 -82 vhcurveto
            return
          </CharString>
          <CharString index="26">
            rmoveto
            -185 -461 rlineto
            -6 hlineto
            -185 461 rlineto
            -38 hlineto
            207 -508 -78 -192 rlineto
            37 hlineto
            285 700 rlineto
            return
          </CharString>
          <CharString index="27">
            605 -97 callsubr
            return
          </CharString>
          <CharString index="28">
            -106 callgsubr
            -177 -149 rmoveto
            27 hlineto
            -104 callgsubr
            -88 callgsubr
            return
          </CharString>
          <CharString index="29">
            -104 callsubr
            134 -68 callsubr
            return
          </CharString>
          <CharString index="30">
            35 hlineto
            178 510 rlineto
            -37 hlineto
            -154 -453 rlineto
            -6 hlineto
            -146 453 rlineto
            -38 hlineto
            -145 -453 rlineto
            -6 hlineto
            -155 453 rlineto
            -38 hlineto
            178 -510 rlineto
            35 hlineto
            146 449 rlineto
            6 hlineto
            endchar
          </CharString>
          <CharString index="31">
            386 32 -338 hlineto
            336 450 rlineto
            28 -372 -32 325 vlineto
            -337 -450 rlineto
            return
          </CharString>
          <CharString index="32">
            27 5 hlineto
            -107 -83 callgsubr
            -46 return
          </CharString>
          <CharString index="33">
            32 -3 -21 251 32 203 32 return
          </CharString>
          <CharString index="34">
            rmoveto
            201 -11 57 -182 -118 -54 -20 -52 -26 vhcurveto
            56 -21 -52 16 -110 hhcurveto
            -72 -64 -5 -7 -40 hvcurveto
            -33 vlineto
            7 39 76 6 47 hhcurveto
            150 26 -13 -149 hvcurveto
            -45 -223 vlineto
            -118 -33 -33 -108 -122 58 -24 126 83 87 9 92 35 hvcurveto
            -78 23 52 -23 126 88 callsubr
            43 180 hvcurveto
            377 hlineto
            -196 239 rmoveto
            126 35 -19 -171 hvcurveto
            -17 -342 vlineto
            180 18 27 163 vhcurveto
            -216 -276 rmoveto
            -50 -6 -36 -17 -37 vhcurveto
            -59 -27 -71 -4 -70 hhcurveto
            -120 -28 21 93 95 25 14 101 hvcurveto
            213 hlineto
            endchar
          </CharString>
          <CharString index="35">
            486 34 -440 hlineto
            432 622 rlineto
            32 -467 -34 422 vlineto
            -433 -622 rlineto
            return
          </CharString>
          <CharString index="36">
            71 91 8 83 28 hvcurveto
            4 hlineto
            return
          </CharString>
          <CharString index="37">
            -209 -635 rmoveto
            -217 -20 6 312 312 20 6 -15 callsubr
            -6 -312 -312 -20 -6 -217 hvcurveto
            return
          </CharString>
          <CharString index="38">
            48 21 -56 callgsubr
            return
          </CharString>
          <CharString index="39">
            -888 rmoveto
            -103 callgsubr
            return
          </CharString>
          <CharString index="40">
            743 -104 callsubr
            return
          </CharString>
          <CharString index="41">
            -195 0 -35 -180 return
          </CharString>
          <CharString index="42">
            rmoveto
            -34 vlineto
            172 3 7 10 251 vvcurveto
            424 -36 -442 vlineto
            -204 -3 -4 -140 -4 vhcurveto
            endchar
          </CharString>
          <CharString index="43">
            -35 vlineto
            -49 -5 -14 -45 vhcurveto
            return
          </CharString>
          <CharString index="44">
            91 0 26 -26 34 628 34 hstemhm
            90 36 90 86 122 86 90 36 hintmask 10111110
            93 hmoveto
            209 29 hlineto
            -160 25 -16 65 239 vvcurveto
            273 20 31 -15 callsubr
            -31 -273 -240 -16 -64 -160 -25 vhcurveto
            -29 209 vlineto
            hintmask 01111110
            34 -3 vlineto
            hintmask 10111110
            -40 -3 -40 -2 -40 -3 rrcurveto
            6 vlineto
            116 33 10 106 187 vvcurveto
            273 -16 65 -257 -257 -16 -65 -273 -187 9 -106 117 -33 vhcurveto
            -6 vlineto
            hintmask 01111110
            -40 3 -40 2 -40 3 rrcurveto
            -3 hlineto
            endchar
          </CharString>
          <CharString index="45">
            6 -35 -45 2 -56 hhcurveto
            131 callgsubr
            -313 16 -39 257 -54 callgsubr
            hvcurveto
            return
          </CharString>
          <CharString index="46">
            rmoveto
            49 78 rlineto
            -38 hlineto
            -40 -63 rlineto
            12 -31 -44 4 -61 hhcurveto
            -203 -12 -47 -217 -129 4 -68 46 -34 hvcurveto
            -49 -78 rlineto
            37 hlineto
            40 63 rlineto
            -12 31 44 -4 62 hhcurveto
            -54 callsubr
            129 -4 69 -46 35 hvcurveto
            -345 -233 rmoveto
            195 0 37 180 54 38 -3 -10 26 vhcurveto
            -264 -420 rlineto
            -34 30 0 59 112 vvcurveto
            180 -230 rmoveto
            -54 -38 3 10 -27 hvcurveto
            265 420 rlineto
            34 -31 0 -60 -112 vvcurveto
            -66 callsubr
            vhcurveto
            endchar
          </CharString>
          <CharString index="47">
            rmoveto
            -22 callsubr
            -15 callgsubr
            27 vlineto
            return
          </CharString>
          <CharString index="48">
            rmoveto
            93 44 5 92 hvcurveto
            613 -35 -623 vlineto
            -45 -9 -12 -93 vhcurveto
            endchar
          </CharString>
          <CharString index="49">
            -153 -23 29 202 202 23 29 return
          </CharString>
          <CharString index="50">
            -21 274 34 354 34 return
          </CharString>
          <CharString index="51">
            36 vstem
            333 -8 -100 callgsubr
            return
          </CharString>
          <CharString index="52">
            rmoveto
            -90 callsubr
            -5 27 vlineto
            return
          </CharString>
          <CharString index="53">
            203 12 45 217 return
          </CharString>
          <CharString index="54">
            rmoveto
            620 149 vlineto
            249 18 86 callsubr
            -14 -6 -253 hvcurveto
            return
          </CharString>
          <CharString index="55">
            605 -103 callsubr
            193 -5 -103 callsubr
            return
          </CharString>
          <CharString index="56">
            217 217 return
          </CharString>
          <CharString index="57">
            -91 callgsubr
            -303 -311 rmoveto
            27 hlineto
            return
          </CharString>
          <CharString index="58">
            -56 -26 -71 -4 -70 hhcurveto
            return
          </CharString>
          <CharString index="59">
            -8 rmoveto
            hintmask 11101000
            214 38 68 124 112 -50 42 -75 12 hvcurveto
            4 vlineto
            hintmask 11110000
            73 15 44 46 100 vvcurveto
            132 -56 49 -187 -57 -80 -6 -8 -54 vhcurveto
            -32 vlineto
            7 55 74 5 51 hhcurveto
            149 69 -19 -130 -120 -78 -27 -67 hvcurveto
            -138 -34 138 hlineto
            hintmask 11101000
            109 44 -45 -110 -132 -82 -19 -134 -46 -80 5 7 -68 hvcurveto
            -32 vlineto
            hintmask 11110000
            -8 54 82 -6 58 hhcurveto
            endchar
          </CharString>
          <CharString index="60">
            -83 callgsubr
            5 return
          </CharString>
          <CharString index="61">
            -139 0 65 597 34 hstemhm
            158 48 -42 36 180 36 hintmask 11011000
            164 173 rmoveto
            36 85 hlineto
            52 3 3 101 38 vhcurveto
            21 7 rlineto
            88 31 3 61 87 vvcurveto
            131 -62 28 -138 -48 -74 -6 -8 -54 vhcurveto
            -32 vlineto
            7 62 70 5 39 hhcurveto
            125 44 -15 -121 -98 -13 -20 -91 -32 hvcurveto
            -28 -10 rlineto
            -65 -22 -19 -9 -75 vvcurveto
            hintmask 11101000
            -6 -260 -77 callgsubr
          </CharString>
          <CharString index="62">
            -73 -40 callsubr
            return
          </CharString>
          <CharString index="63">
            211 vmoveto
            -89 -23 14 56 56 20 15 92 92 20 -15 -56 -56 -22 -14 -90 hvcurveto
            return
          </CharString>
          <CharString index="64">
            -30 callgsubr
            743 -35 -307 2 callsubr
            hvcurveto
            return
          </CharString>
          <CharString index="65">
            923 8 callsubr
            return
          </CharString>
          <CharString index="66">
            -68 callgsubr
            endchar
          </CharString>
          <CharString index="67">
            -8 -27 callsubr
            return
          </CharString>
          <CharString index="68">
            rmoveto
            86 44 13 55 16 hvcurveto
            10 34 2 40 54 vvcurveto
            57 -1 39 -9 30 vhcurveto
            57 -17 -44 6 -83 hhcurveto
            -120 -22 -25 -98 -93 37 -12 99 81 26 14 13 13 hvcurveto
            3 hlineto
            -130 -13 -21 -116 -29 -45 3 4 -35 vhcurveto
            -31 vlineto
            -6 38 49 -3 30 hhcurveto
            9 190 rmoveto
            -93 -17 5 78 74 21 4 89 87 24 -8 -86 -51 -10 -16 -101 hvcurveto
            endchar
          </CharString>
          <CharString index="69">
            rmoveto
            49 4 13 24 69 vvcurveto
            28 -33 -64 callsubr
            -52 hlineto
            return
          </CharString>
          <CharString index="70">
            rmoveto
            79 5 4 25 63 vvcurveto
            70 -6 24 -107 -106 -6 -24 -70 -63 5 -26 78 -4 vhcurveto
            -272 -660 rlineto
            38 hlineto
            91 222 rlineto
            344 hlineto
            91 -222 rlineto
            39 hlineto
            -381 753 rmoveto
            51 1 15 78 79 1 -15 -51 -51 -1 -14 -79 -78 -1 14 51 vhcurveto
            -79 -497 rmoveto
            156 381 rlineto
            5 hlineto
            155 -381 rlineto
            endchar
          </CharString>
          <CharString index="71">
            -13 callsubr
            45 callgsubr
            hvcurveto
            -205 hlineto
            36 -654 -53 callsubr
            return
          </CharString>
          <CharString index="72">
            33 18 33 hstemhm
            return
          </CharString>
          <CharString index="73">
            58 0 34 297 36 287 74 callsubr
            416 36 146 callsubr
            -13 callsubr
            45 callgsubr
            hvcurveto
            -205 -321 -70 -36 70 hlineto
            185 -297 rmoveto
            -149 297 129 36 -129 287 149 hlineto
            249 18 86 callsubr
            -14 -6 -253 hvcurveto
            endchar
          </CharString>
          <CharString index="74">
            36 vstem
            591 171 -93 callgsubr
            return
          </CharString>
          <CharString index="75">
            -76 12 -139 hhcurveto
            -202 -36 -44 -174 -168 59 -19 182 146 46 24 28 23 hvcurveto
            6 hlineto
            -271 -26 -46 -213 -53 -75 5 7 -57 vhcurveto
            -32 vlineto
            -8 63 80 -6 50 hhcurveto
            15 333 rmoveto
            -176 -34 10 162 149 40 16 170 167 46 -23 -179 -98 -18 -37 -195 hvcurveto
            endchar
          </CharString>
          <CharString index="76">
            rmoveto
            -58 callsubr
            return
          </CharString>
          <CharString index="77">
            -40 callgsubr
            130 callgsubr
            hintmask 10111000
            469 510 rmoveto
            80 callsubr
            -700 35 226 5 vlineto
            -31 27 46 -13 74 hhcurveto
            128 38 44 47 16 hvcurveto
            4 hlineto
            hintmask 01111000
            -30 callgsubr
            510 hlineto
            endchar
          </CharString>
          <CharString index="78">
            605 -16 callgsubr
            return
          </CharString>
          <CharString index="79">
            750 -16 callgsubr
            return
          </CharString>
          <CharString index="80">
            64 callsubr
            211 32 return
          </CharString>
          <CharString index="81">
            -13 callsubr
            45 callgsubr
            hvcurveto
            -205 hlineto
            638 -688 rmoveto
            -72 callsubr
            -602 2 -53 callsubr
            endchar
          </CharString>
          <CharString index="82">
            82 -8 76 callgsubr
            return
          </CharString>
          <CharString index="83">
            115 36 return
          </CharString>
          <CharString index="84">
            750 -103 callsubr
            193 -5 -103 callsubr
            return
          </CharString>
          <CharString index="85">
            103 -108 rlineto
            -75 callsubr
            hlineto
            return
          </CharString>
          <CharString index="86">
            rmoveto
            3 callsubr
            endchar
          </CharString>
          <CharString index="87">
            -30 callgsubr
            482 24 hlineto
            19 callgsubr
            vlineto
            return
          </CharString>
          <CharString index="88">
            32 -3 50 callgsubr
            return
          </CharString>
          <CharString index="89">
            46 rmoveto
            99 62 67 110 126 vvcurveto
            125 -67 111 -99 62 vhcurveto
            -32 -51 rlineto
            82 -51 56 -92 -104 vvcurveto
            -105 -55 -91 -83 -52 vhcurveto
            -31 51 rmoveto
            65 41 44 73 83 vvcurveto
            83 -44 73 -66 41 vhcurveto
            -32 -51 rlineto
            49 -31 33 -54 -61 vvcurveto
            -62 -33 -53 -48 -31 vhcurveto
            return
          </CharString>
          <CharString index="90">
            rmoveto
            128 25 33 71 65 -25 16 -49 10 hvcurveto
            2 vlineto
            return
          </CharString>
          <CharString index="91">
            31 hlineto
            75 2 38 96 return
          </CharString>
          <CharString index="92">
            -51 callsubr
            20 return
          </CharString>
          <CharString index="93">
            -122 58 -24 126 vhcurveto
            -1 32 rmoveto
            -120 -28 21 93 hvcurveto
            return
          </CharString>
          <CharString index="94">
            205 hlineto
            266 17 38 306 return
          </CharString>
          <CharString index="95">
            144 -25 54 -162 return
          </CharString>
          <CharString index="96">
            rmoveto
            35 688 -35 hlineto
            hintmask 10011110
            -55 callgsubr
            hintmask 01101110
            622 4 vlineto
            endchar
          </CharString>
          <CharString index="97">
            43 9 25 25 55 vvcurveto
            73 -35 26 -110 -35 -49 -4 -5 -32 vhcurveto
            -31 vlineto
            4 33 43 2 29 hhcurveto
            84 36 -8 -62 return
          </CharString>
          <CharString index="98">
            32 vlineto
            -1 -9 -4 0 -4 hhcurveto
            return
          </CharString>
          <CharString index="99">
            -8 34 636 return
          </CharString>
          <CharString index="100">
            743 rmoveto
            -94 callsubr
            hintmask 01110000
            -101 callsubr
            hintmask 11110000
            -91 callgsubr
            endchar
          </CharString>
          <CharString index="101">
            145 -40 -104 callsubr
            return
          </CharString>
          <CharString index="102">
            1061 rmoveto
            -94 callsubr
            return
          </CharString>
          <CharString index="103">
            rmoveto
            -94 callsubr
            hintmask 11011111
            17 callsubr
            hintmask 11011111
            return
          </CharString>
          <CharString index="104">
            -72 callgsubr
            endchar
          </CharString>
          <CharString index="105">
            rmoveto
            17 callgsubr
          </CharString>
          <CharString index="106">
            -48 -10 -25 -16 -65 vvcurveto
            -71 24 -33 128 vhcurveto
            return
          </CharString>
          <CharString index="107">
            42 hlineto
            449 688 rlineto
            -42 hlineto
            return
          </CharString>
          <CharString index="108">
            -38 21 -21 202 34 452 -20 return
          </CharString>
          <CharString index="109">
            -4 hlineto
            60 -24 -59 22 -98 hhcurveto
            -170 -31 -49 -214 return
          </CharString>
          <CharString index="110">
            35 510 -35 hlineto
            return
          </CharString>
          <CharString index="111">
            888 -103 callsubr
            -209 -143 rmoveto
            27 hlineto
            hintmask 11110100
            -104 callgsubr
            hintmask 11101100
            -88 callgsubr
            return
          </CharString>
          <CharString index="112">
            605 rmoveto
            -95 callsubr
            return
          </CharString>
          <CharString index="113">
            36 146 callsubr
            -36 callsubr
            return
          </CharString>
          <CharString index="114">
            35 vstem
            469 hmoveto
            69 callsubr
            -37 -46 -37 -13 vhcurveto
            -4 308 -35 -743 35 264 hlineto
            -68 callgsubr
            return
          </CharString>
          <CharString index="115">
            -103 callsubr
            -6 callsubr
            return
          </CharString>
          <CharString index="116">
            146 callsubr
            42 callsubr
            return
          </CharString>
          <CharString index="117">
            326 34 -298 hlineto
            -92 297 rlineto
            343 34 -353 hlineto
            -90 289 rlineto
            490 34 -536 hlineto
            -354 -688 rlineto
            38 hlineto
            113 222 rlineto
            345 hlineto
            return
          </CharString>
          <CharString index="118">
            -20 hstem
            181 34 vstem
            198 -85 rmoveto
            112 255 -95 -43 rlineto
            356 vlineto
            95 -42 -112 255 -113 -255 96 42 rlineto
            -356 vlineto
            -96 43 rlineto
            return
          </CharString>
          <CharString index="119">
            -85 callgsubr
            149 return
          </CharString>
          <CharString index="120">
            -43 hvcurveto
            272 351 34 -387 -343 vlineto
            9 70 65 6 31 hhcurveto
            198 38 -21 -142 -130 -37 -41 -179 -46 -80 5 7 -68 hvcurveto
            endchar
          </CharString>
          <CharString index="121">
            103 0 58 callgsubr
            return
          </CharString>
          <CharString index="122">
            rmoveto
            188 28 68 210 hvcurveto
            return
          </CharString>
          <CharString index="123">
            34 hstem
            86 36 416 36 vstem
            330 -8 rmoveto
            239 60 callgsubr
            -239 -239 -5 -39 -313 -313 5 -39 239 hvcurveto
            return
          </CharString>
          <CharString index="124">
            -101 callsubr
            hintmask 11111111
            -91 callgsubr
            return
          </CharString>
          <CharString index="125">
            -47 callsubr
            -46 vlineto
            return
          </CharString>
          <CharString index="126">
            vstem
            582 hmoveto
            43 hlineto
            -271 349 268 339 rlineto
            -42 hlineto
            -256 -322 rlineto
            -173 322 -36 -688 36 332 173 hlineto
            return
          </CharString>
          <CharString index="127">
            hmoveto
            36 176 109 34 -109 300 -35 -300 -343 hlineto
            278 478 rlineto
            -42 hlineto
            -278 -481 rlineto
            -31 384 vlineto
            endchar
          </CharString>
          <CharString index="128">
            -196 rmoveto
            9 4 0 1 9 hvcurveto
            -9 callsubr
            -35 -12 return
          </CharString>
          <CharString index="129">
            -400 75 callgsubr
            return
          </CharString>
          <CharString index="130">
            76 -12 139 hhcurveto
            -8 34 rmoveto
            -167 -46 23 179 98 18 37 195 176 34 -10 -162 -149 -40 -16 -170 hvcurveto
            endchar
          </CharString>
          <CharString index="131">
            rmoveto
            48 65 -20 17 hlineto
            49 5 14 45 vhcurveto
            21 vlineto
            -63 -15 -19 -72 hvcurveto
            return
          </CharString>
          <CharString index="132">
            -228 21 80 65 return
          </CharString>
          <CharString index="133">
            rmoveto
            32 51 rlineto
            -14 9 -10 16 20 vvcurveto
            20 10 16 15 9 vhcurveto
            -32 51 rlineto
            -32 -20 -21 -35 -41 vvcurveto
            -42 21 -34 31 -20 vhcurveto
            return
          </CharString>
          <CharString index="134">
            750 rmoveto
            -95 callsubr
            return
          </CharString>
          <CharString index="135">
            110 320 rmoveto
            34 368 -26 hlineto
            return
          </CharString>
          <CharString index="136">
            815 rmoveto
            43 61 -43 hlineto
            return
          </CharString>
          <CharString index="137">
            -31 84 callsubr
            return
          </CharString>
          <CharString index="138">
            -25 callsubr
            82 72 callgsubr
            return
          </CharString>
          <CharString index="139">
            132 205 -132 206 rlineto
            -31 hlineto
            119 -206 rlineto
            return
          </CharString>
          <CharString index="140">
            105 36 435 36 return
          </CharString>
          <CharString index="141">
            397 rmoveto
            114 8 26 123 123 -8 27 -114 -114 -9 -27 -123 -123 9 -26 114 hvcurveto
            return
          </CharString>
          <CharString index="142">
            5 -688 rmoveto
            38 147 hlineto
            80 -2 142 -3 146 vhcurveto
            -28 hlineto
            -3 -146 -2 -142 -80 vvcurveto
            endchar
          </CharString>
          <CharString index="143">
            20 -17 hlineto
            -49 -5 -14 -45 vhcurveto
            return
          </CharString>
          <CharString index="144">
            61 callgsubr
            hstem
            return
          </CharString>
          <CharString index="145">
            -82 callgsubr
            112 return
          </CharString>
          <CharString index="146">
            6 callgsubr
            82 138 -48 callgsubr
            vstem
            return
          </CharString>
          <CharString index="147">
            -67 callgsubr
            51 28 return
          </CharString>
          <CharString index="148">
            -294 21 -21 482 36 -8 -20 return
          </CharString>
          <CharString index="149">
            122 callgsubr
            654 -36 hlineto
            return
          </CharString>
          <CharString index="150">
            670 rmoveto
            43 61 -43 hlineto
            return
          </CharString>
          <CharString index="151">
            93 callsubr
            vstem
            return
          </CharString>
          <CharString index="152">
            -104 callsubr
            89 return
          </CharString>
          <CharString index="153">
            vmoveto
            -236 -7 23 303 303 7 23 236 236 7 -23 -303 -303 -7 -23 -236 hvcurveto
            return
          </CharString>
          <CharString index="154">
            rmoveto
            27 hlineto
            -104 callgsubr
            -88 callgsubr
            130 return
          </CharString>
          <CharString index="155">
            -6 -143 rlineto
            -178 hlineto
            154 253 rlineto
            -41 hlineto
            -154 -257 rlineto
            -29 219 vlineto
            endchar
          </CharString>
          <CharString index="156">
            138 hstemhm
            100 35 return
          </CharString>
          <CharString index="157">
            38 rmoveto
            -32 vlineto
            -8 54 82 -6 58 hhcurveto
            206 46 52 160 128 -23 62 -210 -64 -62 return
          </CharString>
          <CharString index="158">
            743 -103 callsubr
            -209 -143 rmoveto
            27 hlineto
            return
          </CharString>
          <CharString index="159">
            73 callgsubr
            vlineto
            return
          </CharString>
          <CharString index="160">
            -49 callsubr
            endchar
          </CharString>
          <CharString index="161">
            34 289 34 return
          </CharString>
          <CharString index="162">
            -21 688 -20 return
          </CharString>
          <CharString index="163">
            170 31 49 214 214 -31 49 -170 -98 -59 -22 -60 -24 hvcurveto
            -4 307 -35 hlineto
            return
          </CharString>
          <CharString index="164">
            129 callgsubr
            46 -20 callgsubr
            46 36 return
          </CharString>
          <CharString index="165">
            32 458 28 -24 24 -24 32 return
          </CharString>
          <CharString index="166">
            -31 -8 32 -3 -21 482 28 return
          </CharString>
          <CharString index="167">
            147 callgsubr
            304 34 return
          </CharString>
          <CharString index="168">
            hstem
            75 callsubr
            vstem
            return
          </CharString>
          <CharString index="169">
            186 -6 89 -58 42 vhcurveto
            return
          </CharString>
          <CharString index="170" raw="1">
            abe2871d 0b  
          </CharString>
          <CharString index="171">
            32 219 32 return
          </CharString>
          <CharString index="172">
            rmoveto
            117 callsubr
            49 -23 25 -28 13 hvcurveto
            4 vlineto
            return
          </CharString>
          <CharString index="173">
            -280 268 36 hstem
            65 225 vstem
            65 268 -47 callgsubr
            endchar
          </CharString>
          <CharString index="174">
            59 callsubr
            95 138 130 callgsubr
            74 33 hintmask 10111110
            return
          </CharString>
          <CharString index="175">
            -75 -9 2 132 132 9 2 75 80 3 -2 -132 -132 -9 -2 -74 hvcurveto
            return
          </CharString>
          <CharString index="176">
            96 callgsubr
            -128 return
          </CharString>
          <CharString index="177">
            36 654 233 34 -502 -34 233 hlineto
            return
          </CharString>
          <CharString index="178">
            rmoveto
            23 hlineto
            26 145 10 149 rlineto
            -39 hlineto
            return
          </CharString>
          <CharString index="179">
            0 59 callgsubr
            return
          </CharString>
          <CharString index="180">
            -4 109 rlineto
            -27 hlineto
            return
          </CharString>
          <CharString index="181">
            34 -48 callgsubr
            return
          </CharString>
          <CharString index="182">
            100 125 callgsubr
            return
          </CharString>
          <CharString index="183">
            -31 -200 30 191 128 callgsubr
            hintmask 11101100
            return
          </CharString>
          <CharString index="184">
            rmoveto
            65 45 45 65 65 -45 45 -65 -65 -45 -45 -65 -65 45 -45 65 hvcurveto
            60 vmoveto
            return
          </CharString>
          <CharString index="185">
            -127 415 rmoveto
            116 -381 rlineto
            -316 hlineto
            195 381 rlineto
            endchar
          </CharString>
          <CharString index="186">
            146 callgsubr
            72 callgsubr
            return
          </CharString>
          <CharString index="187">
            -264 vlineto
            -123 0 -99 -175 -134 -25 23 148 vhcurveto
            315 -35 return
          </CharString>
          <CharString index="188">
            888 1 callgsubr
            return
          </CharString>
          <CharString index="189">
            100 hmoveto
            35 743 -35 hlineto
            return
          </CharString>
          <CharString index="190">
            -139 0 32 446 32 return
          </CharString>
          <CharString index="191">
            21 -21 486 32 return
          </CharString>
          <CharString index="192">
            -41 callgsubr
            32 return
          </CharString>
          <CharString index="193">
            -6 -304 -304 return
          </CharString>
          <CharString index="194">
            28 270 27 hstemhm
            -277 82 callgsubr
            hintmask 11110100
            -189 return
          </CharString>
          <CharString index="195">
            hhcurveto
            -17 callgsubr
            return
          </CharString>
          <CharString index="196">
            346 250 vlineto
            146 7 -67 -106 -106 -10 -67 -143 hvcurveto
            endchar
          </CharString>
          <CharString index="197">
            -32 vlineto
            -5 33 45 -4 31 hhcurveto
            return
          </CharString>
          <CharString index="198">
            -21 622 66 0 -20 return
          </CharString>
          <CharString index="199">
            hstemhm
            75 35 351 35 return
          </CharString>
          <CharString index="200">
            hstem
            33 callsubr
            return
          </CharString>
          <CharString index="201">
            65 1 15 20 77 vvcurveto
            return
          </CharString>
          <CharString index="202">
            136 callsubr
            290 -8 rmoveto
            211 4 48 239 return
          </CharString>
          <CharString index="203">
            -137 -6 rlineto
            -24 vlineto
            137 -6 rlineto
            return
          </CharString>
          <CharString index="204">
            248 287 34 hstem
            55 773 vstem
            return
          </CharString>
          <CharString index="205">
            90 36 474 36 return
          </CharString>
          <CharString index="206">
            vmoveto
            -92 callsubr
            return
          </CharString>
          <CharString index="207">
            33 161 33 124 34 hstem
            49 37 223 36 vstem
            203 return
          </CharString>
          <CharString index="208">
            35 hintmask 0000000000000000
            return
          </CharString>
          <CharString index="209">
            888 rmoveto
            -94 callsubr
            return
          </CharString>
          <CharString index="210">
            132 callsubr
            192 61 hstemhm
            return
          </CharString>
          <CharString index="211">
            856 rmoveto
            -94 callsubr
            return
          </CharString>
          <CharString index="212">
            37 376 -29 hlineto
            -96 -51 rlineto
            -35 vlineto
            88 43 rlineto
            endchar
          </CharString>
          <CharString index="213">
            140 34 hstemhm
            264 36 -32 37 return
          </CharString>
          <CharString index="214">
            -21 654 34 hstem
            273 36 vstem
            return
          </CharString>
          <CharString index="215">
            hstem
            75 35 342 35 vstem
            return
          </CharString>
          <CharString index="216">
            30 0 138 hstemhm
            -280 return
          </CharString>
          <CharString index="217">
            30 hstem
            -280 260 vstem
            return
          </CharString>
          <CharString index="218">
            43 -39 35 hintmask 00000000
            return
          </CharString>
          <CharString index="219">
            hstem
            40 603 vstem
            return
          </CharString>
          <CharString index="220">
            hstem
            33 39 vstem
            33 294 rmoveto
            23 hlineto
            16 216 rlineto
            return
          </CharString>
          <CharString index="221">
            312 0 34 188 34 75 34 272 51 -34 34 return
          </CharString>
          <CharString index="222">
            -8 rmoveto
            202 36 44 174 168 -59 19 -182 return
          </CharString>
          <CharString index="223">
            177 10 99 108 108 -7 99 -180 hvcurveto
            return
          </CharString>
          <CharString index="224">
            90 callsubr
            118 22 38 70 return
          </CharString>
          <CharString index="225">
            5 vlineto
            -56 -185 rlineto
            -5 40 vlineto
            43 190 rlineto
            return
          </CharString>
          <CharString index="226">
            -400 -200 30 680 -20 return
          </CharString>
          <CharString index="227">
            -39 -8 32 -3 -21 486 32 return
          </CharString>
          <CharString index="228">
            205 -145 143 -207 return
          </CharString>
          <CharString index="229">
            -196 32 156 return
          </CharString>
          <CharString index="230">
            750 rmoveto
            27 hlineto
            return
          </CharString>
          <CharString index="231">
            28 131 28 return
          </CharString>
          <CharString index="232">
            33 159 33 return
          </CharString>
          <CharString index="233">
            21 -21 176 34 300 -20 198 -20 hstem
            return
          </CharString>
          <CharString index="234">
            313 -16 39 -257 131 callgsubr
            return
          </CharString>
          <CharString index="235">
            34 313 34 hstem
            45 37 195 37 vstem
            82 return
          </CharString>
          <CharString index="236">
            -8 callgsubr
            hstem
            return
          </CharString>
          <CharString index="237">
            32 138 callgsubr
            return
          </CharString>
          <CharString index="238">
            hlineto
            49 212 rlineto
            -34 hlineto
            -49 -212 rlineto
            return
          </CharString>
          <CharString index="239">
            -165 -200 30 191 50 callgsubr
            return
          </CharString>
          <CharString index="240">
            27 hstemhm
            100 35 124 28 101 31 50 35 return
          </CharString>
          <CharString index="241">
            255 112 -255 113 42 -96 rlineto
            return
          </CharString>
          <CharString index="242">
            -177 26 callgsubr
            return
          </CharString>
          <CharString index="243">
            hstem
            75 35 360 35 vstem
            return
          </CharString>
          <CharString index="244">
            445 rmoveto
            48 65 -48 hlineto
            return
          </CharString>
          <CharString index="245">
            39 313 313 return
          </CharString>
          <CharString index="246">
            36 -30 36 428 36 -30 36 hintmask 11110010
            return
          </CharString>
          <CharString index="247">
            hstemhm
            65 35 58 -34 callgsubr
            24 35 return
          </CharString>
          <CharString index="248">
            hstem
            45 36 200 36 199 36 vstem
            return
          </CharString>
          <CharString index="249">
            -99 72 callsubr
            return
          </CharString>
          <CharString index="250">
            26 callgsubr
            87 30 hstem
            75 35 return
          </CharString>
          <CharString index="251">
            -8 callsubr
            34 54 30 hstem
            90 36 return
          </CharString>
          <CharString index="252">
            hstemhm
            100 35 55 55 callgsubr
            56 35 return
          </CharString>
          <CharString index="253">
            vstem
            115 hmoveto
            return
          </CharString>
        <CharString name=".notdef">
          -135 0 50 49 70 383 50 48 50 hstemhm
          0 50 49 53 73 60 -56 53 57 54 57 50 hintmask 1111110111000000
          0 vmoveto
          500 700 -500 hlineto
          450 -50 rmoveto
          -600 -400 600 vlineto
          179 -435 rmoveto
          53 53 hlineto
          33 21 18 23 19 vhcurveto
          30 26 37 36 67 vvcurveto
          12 -3 123 -140 -140 -11 -124 -23 -11 2 -13 2 -7 vhcurveto
          49 28 hlineto
          23 8 77 90 77 12 -59 -28 -51 -28 -24 -28 -23 vhcurveto
          -28 -23 -26 -23 -43 vvcurveto
          hintmask 1111111011000000
          -4 -179 rmoveto
          60 70 -60 hlineto
          endchar
        </CharString>
        <CharString name="A">
          -69 callsubr
          112 callsubr
          604 hmoveto
          -103 callgsubr
          endchar
        </CharString>
        <CharString name="A.ss01">
          -67 callgsubr
          44 callsubr
          576 hmoveto
          -107 callsubr
          endchar
        </CharString>
        <CharString name="AE">
          114 callsubr
          hstemhm
          0 890 hintmask 11101100
          564 hmoveto
          10 callsubr
          hintmask 11110100
          78 callsubr
        </CharString>
        <CharString name="AEacute">
          114 callsubr
          62 138 hstemhm
          0 890 hintmask 11101110
          448 750 -103 callsubr
          116 -755 rmoveto
          10 callsubr
          hintmask 11110110
          78 callsubr
        </CharString>
        <CharString name="Aacute">
          -69 callsubr
          62 138 112 callsubr
          317 750 -103 callsubr
          287 -755 -99 callgsubr
        </CharString>
        <CharString name="Aacute.ss01">
          79 callsubr
          327 750 -103 callsubr
          249 -755 -102 callsubr
        </CharString>
        <CharString name="Abreve">
          -69 callsubr
          59 28 hstem
          213 -34 callgsubr
          vstem
          470 888 -78 callsubr
          endchar
        </CharString>
        <CharString name="Abreve.ss01">
          40 callsubr
          hstem
          105 36 89 -34 callgsubr
          89 36 vstem
          487 888 -81 callgsubr
          endchar
        </CharString>
        <CharString name="Acircumflex">
          -69 callsubr
          170 30 112 callsubr
          211 -92 callgsubr
          393 -755 -99 callgsubr
        </CharString>
        <CharString name="Acircumflex.ss01">
          -67 callgsubr
          162 30 44 callsubr
          231 -92 callgsubr
          345 -755 -102 callsubr
        </CharString>
        <CharString name="Adieresis">
          -69 callsubr
          82 61 hstem
          230 55 callgsubr
          vstem
          230 770 -85 callgsubr
          194 -831 -99 callgsubr
        </CharString>
        <CharString name="Adieresis.ss01">
          -67 callgsubr
          74 61 hstem
          105 36 107 55 callgsubr
          105 36 vstem
          248 770 -85 callgsubr
          148 -831 -102 callsubr
        </CharString>
        <CharString name="Agrave">
          -69 callsubr
          62 138 112 callsubr
          338 750 -86 callgsubr
          392 -883 -99 callgsubr
        </CharString>
        <CharString name="Agrave.ss01">
          79 callsubr
          364 750 -86 callgsubr
          338 -883 -102 callsubr
        </CharString>
        <CharString name="Amacron">
          -69 callsubr
          163 36 hstemhm
          229 225 hintmask 00000000
          hintmask 11111000
          229 851 -47 callgsubr
          375 -887 -99 callgsubr
        </CharString>
        <CharString name="Amacron.ss01">
          -67 callgsubr
          155 56 callgsubr
          -887 -102 callsubr
        </CharString>
        <CharString name="Aogonek">
          48 -196 32 185 -56 callgsubr
          hstem
          544 34 vstem
          578 -118 rmoveto
          39 32 53 27 26 vhcurveto
          6 hlineto
          -284 688 rlineto
          -35 hlineto
          -284 -688 rlineto
          38 hlineto
          91 222 rlineto
          344 hlineto
          90 -221 rlineto
          -34 -35 -25 -50 -40 vvcurveto
          -41 21 -31 -45 callgsubr
          -35 -12 20 26 hvcurveto
          -395 374 rmoveto
          156 381 rlineto
          5 hlineto
          155 -381 rlineto
          endchar
        </CharString>
        <CharString name="Aogonek.ss01">
          82 -196 32 185 -57 callsubr
          hstemhm
          105 36 375 34 26 36 hintmask 00000000
          hintmask 11111110
          597 -164 rmoveto
          -35 -12 20 26 39 32 53 27 26 hvcurveto
          3 3 hlineto
          1 1 rlineto
          -1 hlineto
          hintmask 11111010
          390 vlineto
          240 -20 62 -234 -234 -19 -62 -240 vhcurveto
          -394 36 274 435 -272 vlineto
          hintmask 11111110
          -35 -36 -25 -50 -40 vvcurveto
          -41 21 -31 -45 callgsubr
          hintmask 11111010
          -456 472 rmoveto
          116 vlineto
          191 13 47 204 204 14 -47 -191 vhcurveto
          -116 vlineto
          endchar
        </CharString>
        <CharString name="Aring">
          48 21 4 callgsubr
          404 124 callsubr
          hstem
          229 125 callsubr
          vstem
          371 660 -37 callsubr
        </CharString>
        <CharString name="Aring.ss01">
          146 callgsubr
          124 callsubr
          hstem
          105 36 103 125 callsubr
          107 36 vstem
          356 750 -87 callsubr
          220 -778 -102 callsubr
        </CharString>
        <CharString name="Aringacute">
          48 21 4 callgsubr
          404 124 callsubr
          62 -4 callgsubr
          229 125 callsubr
          vstem
          474 1042 -55 callsubr
          23 -249 -37 callsubr
        </CharString>
        <CharString name="Aringacute.ss01">
          -67 callgsubr
          31 124 callsubr
          32 -4 callgsubr
          105 36 105 125 callsubr
          105 36 vstem
          341 946 -103 callsubr
          17 -224 -87 callsubr
          218 -755 -102 callsubr
        </CharString>
        <CharString name="Atilde">
          -69 callsubr
          73 -35 callsubr
          170 -20 callgsubr
          hintmask 00000000
          hintmask 11111110
          513 104 callsubr
          hintmask 11101110
          -101 callsubr
          hintmask 11111110
          -91 callgsubr
          hintmask 11101110
          91 -856 -99 callgsubr
        </CharString>
        <CharString name="Atilde.ss01">
          -67 callgsubr
          65 129 callgsubr
          43 -20 callgsubr
          49 135 callgsubr
          527 104 callsubr
          hintmask 1110111110000000
          -101 callsubr
          18 callgsubr
          hintmask 1110111110000000
          49 -856 -102 callsubr
        </CharString>
        <CharString name="B">
          52 0 147 callgsubr
          288 34 hstemhm
          -24 callsubr
          407 36 -28 36 hintmask 11111000
          115 hmoveto
          298 hlineto
          hintmask 11110100
          165 24 95 85 69 -14 83 -111 18 hvcurveto
          4 vlineto
          hintmask 11111000
          85 16 32 62 84 vvcurveto
          99 -36 73 -136 vhcurveto
          -307 hlineto
          299 -322 rmoveto
          -263 288 263 hlineto
          112 32 -48 -96 -91 -52 -53 -92 hvcurveto
          hintmask 11110100
          3 -332 rmoveto
          -266 298 266 hlineto
          105 44 -48 -101 -99 -36 -50 -113 hvcurveto
          endchar
        </CharString>
        <CharString name="C">
          -57 -8 110 callgsubr
          vstem
          513 2 -85 callsubr
        </CharString>
        <CharString name="Cacute">
          -57 -8 callsubr
          33 callgsubr
          90 36 vstem
          269 750 -103 callsubr
          244 -753 -85 callsubr
        </CharString>
        <CharString name="Cacute.loclPLK">
          -57 -8 callsubr
          33 callgsubr
          90 36 vstem
          269 -28 callsubr
          244 -753 -85 callsubr
        </CharString>
        <CharString name="Ccaron">
          -57 144 callsubr
          vstem
          266 -84 callsubr
          354 -881 -85 callsubr
        </CharString>
        <CharString name="Ccedilla">
          -57 -8 34 -31 31 636 34 hstemhm
          90 36 hintmask 10110000
          367 26 rmoveto
          -218 -23 25 293 293 23 25 218 44 58 -4 -6 40 hvcurveto
          32 vlineto
          7 -38 -63 5 -51 hhcurveto
          -228 -39 -38 -314 hvcurveto
          hintmask 01110000
          -275 29 -62 155 -12 102 callgsubr
          17 18 0 20 hhcurveto
          50 65 4 6 41 hvcurveto
          34 vlineto
          -6 -40 -60 -4 -46 hhcurveto
          endchar
        </CharString>
        <CharString name="Ccircumflex">
          -57 -8 callsubr
          34 162 30 hstem
          90 36 vstem
          159 -92 callgsubr
          354 -753 -85 callsubr
        </CharString>
        <CharString name="Cdotaccent">
          -57 -8 callsubr
          34 119 61 hstem
          90 36 141 43 vstem
          267 29 callsubr
          246 -874 -85 callsubr
        </CharString>
        <CharString name="D">
          58 0 34 620 74 callsubr
          416 6 callsubr
          endchar
        </CharString>
        <CharString name="Dcaron">
          58 103 callgsubr
          324 -84 callsubr
          -102 -883 rmoveto
          -36 callsubr
          endchar
        </CharString>
        <CharString name="Dcroat">
          -34 callsubr
        </CharString>
        <CharString name="E">
          -44 callgsubr
          hstem
          115 36 146 callsubr
          -89 callgsubr
          endchar
        </CharString>
        <CharString name="Eacute">
          27 callgsubr
          300 750 -103 callsubr
          -185 -755 rmoveto
          -89 callgsubr
          endchar
        </CharString>
        <CharString name="Ebreve">
          -44 callgsubr
          59 28 -48 callgsubr
          48 -34 callgsubr
          vstem
          456 -66 callgsubr
          -341 -888 rmoveto
          -89 callgsubr
          endchar
        </CharString>
        <CharString name="Ecaron">
          -44 callgsubr
          62 30 -48 callgsubr
          vstem
          305 -84 callsubr
          -83 -883 rmoveto
          -89 callgsubr
          endchar
        </CharString>
        <CharString name="Ecircumflex">
          -44 callgsubr
          170 30 -48 callgsubr
          vstem
          204 -92 callgsubr
          -89 -755 rmoveto
          -89 callgsubr
          endchar
        </CharString>
        <CharString name="Edieresis">
          -44 callgsubr
          82 61 -48 callgsubr
          74 55 callgsubr
          vstem
          225 770 -85 callgsubr
          -290 -831 rmoveto
          -89 callgsubr
          endchar
        </CharString>
        <CharString name="Edotaccent">
          -44 callgsubr
          127 61 -48 callgsubr
          155 43 vstem
          306 29 callsubr
          -191 -876 rmoveto
          -89 callgsubr
          endchar
        </CharString>
        <CharString name="Egrave">
          27 callgsubr
          330 750 -86 callgsubr
          -89 -883 rmoveto
          -89 callgsubr
          endchar
        </CharString>
        <CharString name="Emacron">
          -44 callgsubr
          163 36 -48 callgsubr
          64 225 vstem
          215 851 -47 callgsubr
          -100 -887 rmoveto
          -89 callgsubr
          endchar
        </CharString>
        <CharString name="Eng">
          103 -200 30 191 91 callsubr
          62 callgsubr
          hintmask 11011100
          588 688 rmoveto
          -55 callgsubr
          hintmask 11101100
          622 4 vlineto
          434 -622 rlineto
          -113 vlineto
          -45 -9 -12 -93 vhcurveto
          -30 vlineto
          93 44 5 92 hvcurveto
          791 vlineto
          endchar
        </CharString>
        <CharString name="Eogonek">
          -37 -196 32 164 -26 callgsubr
          hstem
          115 36 289 34 32 35 vstem
          516 21 callsubr
          21 24 42 38 54 29 23 hvcurveto
          34 -390 297 343 34 -343 289 390 34 -426 -688 391 vlineto
          -38 -35 -28 -48 -43 vvcurveto
          -38 21 -32 55 vhcurveto
          endchar
        </CharString>
        <CharString name="Eth">
          -34 callsubr
        </CharString>
        <CharString name="Euro">
          -10 -8 34 226 34 119 34 223 34 hstem
          137 36 vstem
          404 -8 rmoveto
          50 65 4 6 41 hvcurveto
          34 vlineto
          -6 -40 -60 -4 -46 hhcurveto
          -193 -40 19 207 -7 hvcurveto
          333 34 -334 119 334 34 -333 hlineto
          204 7 41 19 192 hhcurveto
          44 58 -4 -6 40 hvcurveto
          32 vlineto
          7 -38 -63 5 -51 hhcurveto
          -203 -53 -30 -227 -10 hvcurveto
          -97 -34 96 -119 -96 -34 97 hlineto
          -233 9 53 -27 204 hhcurveto
          endchar
        </CharString>
        <CharString name="F">
          -74 21 -21 317 34 303 74 callsubr
          146 callsubr
          36 317 333 34 -333 303 370 34 -406 hlineto
          endchar
        </CharString>
        <CharString name="G">
          43 callgsubr
          hstem
          90 36 421 36 vstem
          547 315 -93 callsubr
          endchar
        </CharString>
        <CharString name="G.ss01">
          25 callgsubr
          hstem
          90 36 451 36 vstem
          371 -8 -94 callgsubr
          endchar
        </CharString>
        <CharString name="G_tilde.loclGUA">
          43 callgsubr
          97 -35 callsubr
          90 36 44 -20 callgsubr
          34 135 callgsubr
          513 102 callsubr
          hintmask 1110111110000000
          -101 callsubr
          18 callgsubr
          hintmask 1110111110000000
          34 -573 -93 callsubr
          endchar
        </CharString>
        <CharString name="Gbreve">
          43 callgsubr
          51 28 hstem
          90 36 87 -34 callgsubr
          77 36 vstem
          470 -66 callgsubr
          77 -573 -93 callsubr
          endchar
        </CharString>
        <CharString name="Gbreve.ss01">
          25 callgsubr
          51 28 hstem
          90 36 94 -34 callgsubr
          100 36 vstem
          477 -66 callgsubr
          -106 -896 -94 callgsubr
          endchar
        </CharString>
        <CharString name="Gcaron">
          43 callgsubr
          54 30 hstem
          90 36 421 36 vstem
          319 -84 callsubr
          335 -568 -93 callsubr
          endchar
        </CharString>
        <CharString name="Gcaron.ss01">
          25 callgsubr
          54 30 hstem
          90 36 451 36 vstem
          326 -84 callsubr
          152 -891 -94 callgsubr
          endchar
        </CharString>
        <CharString name="Gcircumflex">
          43 callgsubr
          162 30 hstem
          90 36 421 36 vstem
          212 -92 callgsubr
          335 -440 -93 callsubr
          endchar
        </CharString>
        <CharString name="Gcircumflex.ss01">
          25 callgsubr
          162 30 hstem
          90 36 451 36 vstem
          219 -92 callgsubr
          152 -763 -94 callgsubr
          endchar
        </CharString>
        <CharString name="Gcommaaccent">
          48 25 callsubr
          54 83 callgsubr
          hstem
          90 36 227 28 166 36 vstem
          547 315 -93 callsubr
          -50 -522 rmoveto
          79 callgsubr
        </CharString>
        <CharString name="Gcommaaccent.ss01">
          63 25 callsubr
          54 60 callsubr
          hstem
          90 36 234 28 189 36 vstem
          371 -8 -94 callgsubr
          -61 -199 rmoveto
          79 callgsubr
        </CharString>
        <CharString name="Gdotaccent">
          43 callgsubr
          119 61 hstem
          90 36 194 43 184 36 vstem
          320 29 callsubr
          227 -561 -93 callsubr
          endchar
        </CharString>
        <CharString name="Gdotaccent.ss01">
          25 callgsubr
          119 61 hstem
          90 36 201 43 207 36 vstem
          327 29 callsubr
          44 -884 -94 callgsubr
          endchar
        </CharString>
        <CharString name="Gtilde.loclGUA.ss01">
          25 callgsubr
          97 -35 callsubr
          90 36 51 -20 callgsubr
          57 135 callgsubr
          520 102 callsubr
          hintmask 1110111110000000
          -101 callsubr
          18 callgsubr
          hintmask 1110111110000000
          -149 -896 -94 callgsubr
          endchar
        </CharString>
        <CharString name="H">
          103 21 -21 331 34 323 85 callgsubr
          436 52 callgsubr
          endchar
        </CharString>
        <CharString name="Hbar">
          103 21 -21 311 34 149 36 -36 194 hstemhm
          -24 callsubr
          436 36 hintmask 00000000
          hintmask 11011100
          587 688 rmoveto
          hintmask 11101100
          -158 -436 vlineto
          hintmask 11011100
          158 -36 -688 36 311 436 -311 36 688 vlineto
          -472 -343 rmoveto
          hintmask 11101100
          149 436 -149 vlineto
          endchar
        </CharString>
        <CharString name="Hcircumflex">
          103 21 -21 331 34 323 -20 190 30 -48 callgsubr
          436 36 vstem
          239 -92 callgsubr
          348 -755 rmoveto
          80 callgsubr
          endchar
        </CharString>
        <CharString name="I">
          6 callgsubr
          hstem
          115 143 callgsubr
          endchar
        </CharString>
        <CharString name="IJ">
          -45 72 callsubr
          298 143 callgsubr
          191 -654 -65 callsubr
        </CharString>
        <CharString name="Iacute">
          39 callsubr
          107 750 -103 callsubr
          8 -755 -2 callsubr
        </CharString>
        <CharString name="Iacute_J.loclNLD">
          -45 0 34 654 -20 82 138 -48 callgsubr
          298 36 vstem
          113 750 -103 callsubr
          334 -5 -103 callsubr
          -332 -755 rmoveto
          64 callgsubr
          191 -654 -65 callsubr
        </CharString>
        <CharString name="Ibreve">
          6 callgsubr
          79 28 hstem
          4 31 80 36 79 31 vstem
          261 -66 callgsubr
          -146 -888 -2 callsubr
        </CharString>
        <CharString name="Icircumflex">
          6 callgsubr
          190 30 -48 callgsubr
          vstem
          3 -92 callgsubr
          112 -755 -2 callsubr
        </CharString>
        <CharString name="Idieresis">
          6 callgsubr
          101 61 hstem
          21 43 51 36 50 43 vstem
          21 769 -85 callgsubr
          -86 -830 -2 callsubr
        </CharString>
        <CharString name="Idotaccent">
          6 callgsubr
          147 61 hstemhm
          111 43 -39 36 hintmask 00000000
          hintmask 11110000
          111 29 callsubr
          hintmask 11101000
          4 -876 -2 callsubr
        </CharString>
        <CharString name="Igrave">
          39 callsubr
          134 750 -86 callgsubr
          107 -883 -2 callsubr
        </CharString>
        <CharString name="Imacron">
          6 callgsubr
          183 36 -48 callgsubr
          vstem
          20 851 -47 callgsubr
          95 -887 -2 callsubr
        </CharString>
        <CharString name="Iogonek">
          -369 -196 32 185 55 callsubr
          hstemhm
          54 34 27 36 hintmask 00000000
          hintmask 11111000
          130 21 callsubr
          20 26 hvcurveto
          hintmask 11101000
          40 36 55 27 23 vhcurveto
          688 -36 -688 1 vlineto
          hintmask 11111000
          -36 -35 -26 -49 -40 vvcurveto
          -41 21 -31 55 vhcurveto
          endchar
        </CharString>
        <CharString name="Itilde">
          6 callgsubr
          125 -35 callsubr
          -39 27 127 36 126 27 hintmask 00000000
          hintmask 11111110
          304 -7 callgsubr
          -189 -888 -2 callsubr
        </CharString>
        <CharString name="J">
          -311 0 34 654 -20 hstem
          183 36 vstem
          40 34 -65 callsubr
        </CharString>
        <CharString name="Jcircumflex">
          -311 0 34 654 -20 190 30 hstem
          183 36 vstem
          71 -92 callgsubr
          -31 -721 -65 callsubr
        </CharString>
        <CharString name="K">
          30 21 -21 332 34 322 85 callgsubr
          19 callsubr
          endchar
        </CharString>
        <CharString name="Kcommaaccent">
          30 25 callsubr
          83 -21 332 34 322 85 callgsubr
          193 28 19 callsubr
          -30 -539 rmoveto
          79 callgsubr
        </CharString>
        <CharString name="L">
          142 callsubr
          9 callsubr
          endchar
        </CharString>
        <CharString name="Lacute">
          -99 0 34 654 -20 82 138 -48 callgsubr
          vstem
          113 750 -103 callsubr
          2 -755 rmoveto
          42 callsubr
          endchar
        </CharString>
        <CharString name="Lcaron">
          142 callsubr
          182 39 9 callsubr
          206 -234 22 callgsubr
          endchar
        </CharString>
        <CharString name="Lcommaaccent">
          -99 25 callsubr
          62 59 callgsubr
          148 28 9 callsubr
          134 -895 rmoveto
          79 callgsubr
        </CharString>
        <CharString name="Ldot">
          -99 0 34 293 65 296 85 callgsubr
          230 48 9 callsubr
          266 -361 -77 callgsubr
        </CharString>
        <CharString name="Lslash">
          142 callsubr
          vstem
          151 34 rmoveto
          289 vlineto
          213 78 rlineto
          34 vlineto
          -213 -78 rlineto
          331 -36 -344 vlineto
          -69 -25 rlineto
          -34 vlineto
          69 25 rlineto
          -310 386 34 vlineto
          endchar
        </CharString>
        <CharString name="M">
          280 0 53 565 70 hstem
          115 35 614 36 vstem
          764 hmoveto
          36 688 -45 hlineto
          -295 -635 rlineto
          -5 hlineto
          -294 635 rlineto
          -46 -688 35 618 4 hlineto
          287 -618 rlineto
          32 hlineto
          287 618 rlineto
          4 hlineto
          endchar
        </CharString>
        <CharString name="N">
          14 callsubr
          62 callgsubr
          hintmask 01011100
          588 hmoveto
          35 688 -35 hlineto
          hintmask 10011100
          -55 callgsubr
          hintmask 01101100
          622 4 vlineto
          endchar
        </CharString>
        <CharString name="Nacute">
          14 callsubr
          82 138 62 callgsubr
          hintmask 01011110
          349 750 -103 callsubr
          239 -755 -11 callsubr
        </CharString>
        <CharString name="Nacute.loclPLK">
          14 callsubr
          82 138 62 callgsubr
          hintmask 01011110
          349 -28 callsubr
          239 -755 -11 callsubr
        </CharString>
        <CharString name="Ncaron">
          14 callsubr
          82 30 62 callgsubr
          hintmask 01011110
          346 -84 callsubr
          349 -883 -11 callsubr
        </CharString>
        <CharString name="Ncommaaccent">
          103 25 callsubr
          62 58 callgsubr
          hstemhm
          115 35 230 28 180 35 hintmask 1101011110000000
          588 hmoveto
          35 688 -35 hlineto
          hintmask 1110011110000000
          -55 callgsubr
          hintmask 1101101110000000
          622 4 vlineto
          176 -829 rmoveto
          79 callgsubr
        </CharString>
        <CharString name="Ntilde">
          14 callsubr
          93 -35 callsubr
          115 35 52 -20 callgsubr
          43 101 callsubr
          hintmask 0101111111000000
          545 104 callsubr
          hintmask 0101011111000000
          -101 callsubr
          hintmask 0101111111000000
          -91 callgsubr
          hintmask 0101011111000000
          43 -856 rmoveto
          35 688 -35 hlineto
          hintmask 1001011111000000
          -55 callgsubr
          hintmask 0110011111000000
          622 4 vlineto
          endchar
        </CharString>
        <CharString name="O">
          91 -8 110 callgsubr
          474 36 vstem
          363 -8 -105 callgsubr
          endchar
        </CharString>
        <CharString name="OE">
          438 -39 callgsubr
          hstem
          98 callsubr
          vstem
          363 hmoveto
          653 34 -380 hlineto
          -31 -29 -2 -2 -13 hvcurveto
          65 40 7 86 1 175 rrcurveto
          333 34 -333 hlineto
          -1 169 -8 84 -64 40 rrcurveto
          -2 13 29 -2 31 hhcurveto
          380 34 -653 hlineto
          -257 -16 -38 -306 -306 16 -38 257 hvcurveto
          34 vmoveto
          -217 -20 6 304 304 20 6 -15 callsubr
          86 callsubr
          -20 -6 -217 hvcurveto
          endchar
        </CharString>
        <CharString name="Oacute">
          -29 callgsubr
          340 750 -103 callsubr
          23 -763 -105 callgsubr
          endchar
        </CharString>
        <CharString name="Oacute.loclPLK">
          -29 callgsubr
          343 -28 callsubr
          20 -763 -105 callgsubr
          endchar
        </CharString>
        <CharString name="Obreve">
          3 callgsubr
          51 28 hstem
          90 36 108 -34 callgsubr
          109 36 vstem
          491 -66 callgsubr
          -128 -896 -105 callgsubr
          endchar
        </CharString>
        <CharString name="Ocircumflex">
          3 callgsubr
          162 30 hstem
          98 callsubr
          vstem
          233 750 47 callsubr
          -763 -105 callgsubr
          endchar
        </CharString>
        <CharString name="Odieresis">
          3 callgsubr
          74 61 hstem
          90 36 125 55 callgsubr
          126 36 vstem
          251 770 -85 callgsubr
          -68 -839 -105 callgsubr
          endchar
        </CharString>
        <CharString name="Ograve">
          -29 callgsubr
          353 750 -86 callgsubr
          136 -891 -105 callgsubr
          endchar
        </CharString>
        <CharString name="Ohorn">
          -1 callgsubr
          26 -26 34 hstemhm
          98 callsubr
          hintmask 00000000
          hintmask 11011000
          572 661 -38 callsubr
          hintmask 10111000
          -62 callsubr
          hintmask 11011000
          62 callsubr
          hintmask 10111000
          -70 callsubr
          endchar
        </CharString>
        <CharString name="Ohungarumlaut">
          -29 callgsubr
          252 -23 callsubr
          -82 -763 -105 callgsubr
          endchar
        </CharString>
        <CharString name="Omacron">
          3 callgsubr
          155 36 hstem
          90 36 124 225 125 36 vstem
          250 851 -47 callgsubr
          113 -895 -105 callgsubr
          endchar
        </CharString>
        <CharString name="Oslash">
          91 -8 110 callgsubr
          474 36 vstem
          580 655 -61 callgsubr
        </CharString>
        <CharString name="Oslashacute">
          -29 callgsubr
          496 883 -55 callsubr
          210 -95 -61 callgsubr
        </CharString>
        <CharString name="Otilde">
          3 callgsubr
          65 -35 callsubr
          90 36 65 -20 callgsubr
          66 36 hintmask 00000000
          hintmask 11111111
          534 856 -4 callsubr
          -171 -864 -105 callgsubr
          endchar
        </CharString>
        <CharString name="P">
          20 21 -21 274 34 346 74 callsubr
          403 36 146 callsubr
          36 274 252 hlineto
          116 callsubr
          -288 hlineto
          36 -380 rmoveto
          89 callsubr
        </CharString>
        <CharString name="Q">
          91 -8 34 -13 -21 670 34 hstemhm
          98 callsubr
          hintmask 00000000
          hintmask 01111000
          549 14 rmoveto
          80 35 7 87 208 vvcurveto
          127 callsubr
          vhcurveto
          hintmask 10111000
          -313 16 -39 257 64 49 2 9 38 vhcurveto
          90 -118 rlineto
          43 2 hlineto
          -284 139 rmoveto
          -217 -20 6 312 312 20 6 -15 callsubr
          -6 -312 -201 -8 -74 -64 -27 hvcurveto
          -135 176 rlineto
          -43 hlineto
          142 -186 rlineto
          -6 -32 -43 0 -54 hhcurveto
          endchar
        </CharString>
        <CharString name="R">
          50 21 -21 294 34 326 74 callsubr
          411 -19 callgsubr
          endchar
        </CharString>
        <CharString name="R.ss01">
          57 21 -21 298 34 322 74 callsubr
          411 -33 callsubr
          endchar
        </CharString>
        <CharString name="Racute">
          50 21 -21 294 34 326 34 62 138 -48 callgsubr
          411 36 vstem
          476 883 -55 callsubr
          255 -750 rmoveto
          -91 callsubr
          endchar
        </CharString>
        <CharString name="Racute.ss01">
          57 21 -21 298 34 322 34 62 138 -48 callgsubr
          411 36 vstem
          479 883 -55 callsubr
          238 -579 -93 callgsubr
          endchar
        </CharString>
        <CharString name="Rcaron">
          50 21 -21 294 34 326 134 callgsubr
          366 750 rmoveto
          -96 callsubr
          107 -133 rlineto
          285 -750 rmoveto
          -91 callsubr
          endchar
        </CharString>
        <CharString name="Rcaron.ss01">
          57 21 -21 298 34 322 134 callgsubr
          369 750 rmoveto
          -96 callsubr
          107 -133 rlineto
          268 -579 -93 callgsubr
          endchar
        </CharString>
        <CharString name="Rcommaaccent">
          50 25 callsubr
          83 -21 294 34 326 74 callsubr
          203 28 180 -19 callgsubr
          -70 -455 rmoveto
          36 callsubr
          -21 vlineto
          63 15 19 72 hvcurveto
          75 -48 vlineto
          endchar
        </CharString>
        <CharString name="Rcommaaccent.ss01">
          57 25 callsubr
          83 -21 298 34 322 74 callsubr
          206 28 177 -33 callsubr
          -67 -459 rmoveto
          36 callsubr
          -21 vlineto
          63 15 19 72 hvcurveto
          75 -48 vlineto
          endchar
        </CharString>
        <CharString name="S">
          106 callgsubr
          hstem
          80 36 404 -56 callsubr
          endchar
        </CharString>
        <CharString name="Sacute">
          106 callgsubr
          54 138 hstem
          80 36 404 36 vstem
          298 750 -103 callsubr
          35 -763 -100 callgsubr
          endchar
        </CharString>
        <CharString name="Sacute.loclPLK">
          106 callgsubr
          54 138 hstem
          80 36 404 36 vstem
          298 -28 callsubr
          35 -763 -100 callgsubr
          endchar
        </CharString>
        <CharString name="Scaron">
          106 callgsubr
          54 30 hstem
          80 36 404 36 vstem
          305 -84 callsubr
          135 -891 -100 callgsubr
          endchar
        </CharString>
        <CharString name="Scedilla">
          106 callgsubr
          hstem
          80 36 404 36 vstem
          548 290 rmoveto
          -18 61 -53 6 -88 9 -174 18 rcurveline
          -87 9 -12 23 97 vvcurveto
          55 5 41 35 23 vhcurveto
          22 32 50 8 83 hhcurveto
          61 83 -5 -7 56 hvcurveto
          33 vlineto
          8 -43 -85 5 -75 hhcurveto
          -165 -73 -28 -153 -93 0 -60 129 -13 hvcurveto
          183 -19 rlineto
          126 -13 2 -12 -122 vvcurveto
          -58 -5 -54 -40 -21 vhcurveto
          -21 -40 -43 -3 -69 hhcurveto
          -58 -98 6 7 -67 hvcurveto
          -35 vlineto
          54 -6 80 -5 68 -1 -53 -177 rcurveline
          -5 40 vlineto
          41 182 rlineto
          3 hlineto
          135 88 9 187 44 0 33 -8 25 hvcurveto
          endchar
        </CharString>
        <CharString name="Scircumflex">
          106 callgsubr
          162 30 hstem
          80 36 404 36 vstem
          188 -92 callgsubr
          145 -763 -100 callgsubr
          endchar
        </CharString>
        <CharString name="Scommaaccent">
          1 25 callsubr
          54 34 323 35 278 34 hstem
          80 36 213 28 163 -56 callsubr
          -54 -199 rmoveto
          79 callgsubr
        </CharString>
        <CharString name="T">
          -53 21 107 callsubr
          40 callgsubr
          endchar
        </CharString>
        <CharString name="Tbar">
          -53 21 -21 346 32 276 34 hstem
          273 36 vstem
          542 654 rmoveto
          34 -502 -34 233 -276 -202 -32 202 -346 36 346 202 32 -202 276 vlineto
          endchar
        </CharString>
        <CharString name="Tcaron">
          -53 21 -21 654 34 62 30 hstem
          273 36 vstem
          268 -84 callsubr
          112 -883 rmoveto
          70 callsubr
          endchar
        </CharString>
        <CharString name="Thorn">
          20 0 177 -34 34 346 34 -34 165 hstemhm
          -24 callsubr
          403 36 hintmask 00000000
          hintmask 10101100
          115 hmoveto
          36 hlineto
          hintmask 01101100
          143 252 vlineto
          116 callsubr
          -252 hlineto
          hintmask 01011100
          131 -36 vlineto
          36 -511 rmoveto
          hintmask 01101100
          89 callsubr
        </CharString>
        <CharString name="U">
          -25 callsubr
          44 callsubr
          576 688 rmoveto
          -424 vlineto
          -101 callgsubr
          394 vlineto
          endchar
        </CharString>
        <CharString name="Uacute">
          31 callsubr
          328 750 -103 callsubr
          248 -67 rmoveto
          -424 vlineto
          -101 callgsubr
          394 vlineto
          endchar
        </CharString>
        <CharString name="Ubreve">
          -25 callsubr
          79 28 hstem
          105 36 89 -34 callgsubr
          89 36 vstem
          487 -66 callgsubr
          89 -200 rmoveto
          -424 vlineto
          -101 callgsubr
          394 vlineto
          endchar
        </CharString>
        <CharString name="Ucircumflex">
          -25 callsubr
          190 30 44 callsubr
          229 -92 callgsubr
          347 -67 rmoveto
          -424 vlineto
          -101 callgsubr
          394 vlineto
          endchar
        </CharString>
        <CharString name="Udieresis">
          -25 callsubr
          102 61 hstem
          105 36 106 55 callgsubr
          106 36 vstem
          247 770 12 callsubr
          -143 rmoveto
          -424 vlineto
          -101 callgsubr
          394 vlineto
          endchar
        </CharString>
        <CharString name="Ugrave">
          31 callsubr
          377 750 -86 callgsubr
          325 -195 rmoveto
          -424 vlineto
          -101 callgsubr
          394 vlineto
          endchar
        </CharString>
        <CharString name="Uhorn">
          112 callgsubr
          93 callsubr
          79 33 vstem
          691 786 rmoveto
          -64 callsubr
          -29 hlineto
          -36 -424 hlineto
          -101 callgsubr
          366 29 vlineto
          19 callgsubr
          vlineto
          endchar
        </CharString>
        <CharString name="Uhungarumlaut">
          31 callsubr
          248 -23 callsubr
          135 -67 rmoveto
          -424 vlineto
          -101 callgsubr
          394 vlineto
          endchar
        </CharString>
        <CharString name="Umacron">
          -25 callsubr
          183 56 callgsubr
          -199 rmoveto
          -424 vlineto
          -101 callgsubr
          394 vlineto
          endchar
        </CharString>
        <CharString name="Uogonek">
          82 122 callsubr
          76 callgsubr
          hstem
          105 36 269 34 132 36 vstem
          576 688 rmoveto
          -424 vlineto
          -191 -13 -47 -204 -204 -14 47 191 vhcurveto
          424 -36 -394 vlineto
          -240 20 -62 234 48 40 3 6 32 vhcurveto
          -42 -38 -27 -48 -39 vvcurveto
          -41 21 -31 -45 callgsubr
          -35 -12 20 26 56 54 62 39 22 hvcurveto
          67 38 8 81 153 vvcurveto
          394 vlineto
          endchar
        </CharString>
        <CharString name="Uring">
          -25 callsubr
          59 124 callsubr
          hstem
          105 36 105 125 callsubr
          105 36 vstem
          358 727 -87 callsubr
          218 -67 rmoveto
          -424 vlineto
          -101 callgsubr
          394 vlineto
          endchar
        </CharString>
        <CharString name="Utilde">
          -25 callsubr
          125 57 callsubr
          hintmask 00000000
          hintmask 11111111
          530 888 -4 callsubr
          46 -200 rmoveto
          -424 vlineto
          -101 callgsubr
          394 vlineto
          endchar
        </CharString>
        <CharString name="V">
          28 0 55 633 -20 hstem
          40 583 vstem
          314 hmoveto
          35 hlineto
          274 688 rlineto
          -38 hlineto
          -251 -633 rlineto
          -5 hlineto
          -250 633 rlineto
          -39 hlineto
          endchar
        </CharString>
        <CharString name="W">
          42 callgsubr
          hstemhm
          48 888 hintmask 10110000
          697 hmoveto
          -74 callgsubr
          hintmask 11010000
          53 callgsubr
        </CharString>
        <CharString name="Wacute">
          42 callgsubr
          82 138 hstemhm
          48 888 hintmask 10111000
          472 750 -103 callsubr
          225 -755 rmoveto
          -74 callgsubr
          hintmask 11011000
          53 callgsubr
        </CharString>
        <CharString name="Wcircumflex">
          42 callgsubr
          190 30 hstemhm
          48 888 hintmask 10111000
          362 -92 callgsubr
          335 -755 rmoveto
          -74 callgsubr
          hintmask 11011000
          53 callgsubr
        </CharString>
        <CharString name="Wdieresis">
          42 callgsubr
          147 61 hstemhm
          380 55 callgsubr
          hintmask 10111100
          380 815 -85 callgsubr
          137 -876 rmoveto
          -74 callgsubr
          hintmask 11011100
          53 callgsubr
        </CharString>
        <CharString name="Wgrave">
          42 callgsubr
          82 138 hstemhm
          48 888 hintmask 10111000
          491 750 -86 callgsubr
          332 -883 rmoveto
          -74 callgsubr
          hintmask 11011000
          53 callgsubr
        </CharString>
        <CharString name="X">
          39 21 -21 313 65 310 -20 hstem
          40 594 vstem
          589 hmoveto
          45 hlineto
          -275 347 272 341 rlineto
          -44 hlineto
          -246 -310 rlineto
          -7 hlineto
          -245 310 rlineto
          -45 hlineto
          271 -342 -275 -346 rlineto
          44 hlineto
          249 313 rlineto
          8 hlineto
          endchar
        </CharString>
        <CharString name="Y">
          -36 129 callsubr
          281 36 vstem
          281 hmoveto
          -80 callgsubr
          endchar
        </CharString>
        <CharString name="Y.loclGUA">
          1 callsubr
          141 callsubr
          516 688 -89 callsubr
          endchar
        </CharString>
        <CharString name="Yacute">
          -36 -8 callgsubr
          82 -4 callgsubr
          281 36 vstem
          282 750 -103 callsubr
          -1 -755 rmoveto
          -80 callgsubr
          endchar
        </CharString>
        <CharString name="Yacute.loclGUA">
          1 callsubr
          82 138 141 callsubr
          431 883 -55 callsubr
          211 -62 -89 callsubr
          endchar
        </CharString>
        <CharString name="Ycircumflex">
          -36 -8 callgsubr
          190 30 hstem
          281 36 vstem
          170 -92 callgsubr
          111 -755 rmoveto
          -80 callgsubr
          endchar
        </CharString>
        <CharString name="Ycircumflex.loclGUA">
          1 callsubr
          190 30 141 callsubr
          298 858 -60 callsubr
          321 -62 -89 callsubr
          endchar
        </CharString>
        <CharString name="Ydieresis">
          -36 -8 callgsubr
          102 61 hstem
          190 43 48 36 53 43 vstem
          190 770 -85 callgsubr
          -89 -831 rmoveto
          -80 callgsubr
          endchar
        </CharString>
        <CharString name="Ydieresis.loclGUA">
          1 callsubr
          147 61 hstem
          45 36 105 43 52 36 49 43 107 36 vstem
          229 876 57 callgsubr
          107 -127 -89 callsubr
          endchar
        </CharString>
        <CharString name="Ygrave">
          -36 -8 callgsubr
          82 -4 callgsubr
          281 36 vstem
          299 750 -86 callgsubr
          108 -883 rmoveto
          -80 callgsubr
          endchar
        </CharString>
        <CharString name="Ygrave.loclGUA">
          1 callsubr
          82 138 141 callsubr
          324 27 callsubr
          219 -62 -89 callsubr
          endchar
        </CharString>
        <CharString name="Z">
          -34 0 34 620 34 hstem
          60 486 vstem
          60 hmoveto
          -72 callsubr
          endchar
        </CharString>
        <CharString name="Zacute">
          -34 0 34 620 34 62 -4 callgsubr
          60 486 vstem
          281 750 -103 callsubr
          -221 -755 rmoveto
          -72 callsubr
          endchar
        </CharString>
        <CharString name="Zacute.loclPLK">
          -34 0 34 620 34 62 -4 callgsubr
          60 486 vstem
          281 -28 callsubr
          -221 -755 rmoveto
          -72 callsubr
          endchar
        </CharString>
        <CharString name="Zcaron">
          -34 0 34 620 34 61 30 hstem
          60 486 vstem
          283 749 -97 callsubr
          -116 -882 rmoveto
          -72 callsubr
          endchar
        </CharString>
        <CharString name="Zdotaccent">
          -34 0 34 620 34 127 61 hstem
          279 43 vstem
          279 29 callsubr
          -219 -876 rmoveto
          -72 callsubr
          endchar
        </CharString>
        <CharString name="a">
          -75 callgsubr
          54 callgsubr
          hintmask 10111100
          249 -8 rmoveto
          -71 callsubr
          hintmask 01111100
          -107 callgsubr
          hintmask 10111100
          -98 callsubr
          endchar
        </CharString>
        <CharString name="aacute">
          -75 callgsubr
          87 138 54 callgsubr
          hintmask 10111110
          254 605 -103 callsubr
          -5 41 callgsubr
          hintmask 01111110
          -107 callgsubr
          hintmask 10111110
          -98 callsubr
          endchar
        </CharString>
        <CharString name="abreve">
          -75 callgsubr
          84 28 140 callsubr
          hintmask 0000000000000000
          hintmask 1011111110000000
          415 -67 callsubr
          -166 -751 rmoveto
          hintmask 1011111010000000
          -71 callsubr
          hintmask 0111111010000000
          -107 callgsubr
          hintmask 1011111110000000
          -14 callsubr
          hintmask 1011111010000000
          -35 callgsubr
          hintmask 1011111110000000
          53 callsubr
        </CharString>
        <CharString name="acircumflex">
          -75 callgsubr
          195 30 54 callgsubr
          hintmask 10111110
          160 -82 callgsubr
          89 41 callgsubr
          hintmask 01111110
          -107 callgsubr
          hintmask 10111110
          -98 callsubr
          endchar
        </CharString>
        <CharString name="acute">
          -442 605 -4 callgsubr
          20 153 vstem
          20 605 -103 callsubr
          endchar
        </CharString>
        <CharString name="acute.case.loclPLK">
          -442 750 -4 callgsubr
          20 103 vstem
          20 -28 callsubr
          endchar
        </CharString>
        <CharString name="acute.loclPLK">
          -442 605 -4 callgsubr
          20 103 vstem
          20 -29 callsubr
          endchar
        </CharString>
        <CharString name="acutecomb">
          605 -4 callgsubr
          -173 153 vstem
          -173 605 -103 callsubr
          endchar
        </CharString>
        <CharString name="acutecomb.case">
          750 -4 callgsubr
          -173 153 vstem
          -173 750 -103 callsubr
          endchar
        </CharString>
        <CharString name="adieresis">
          -75 callgsubr
          152 61 hstemhm
          65 35 79 55 callgsubr
          37 35 hintmask 1011111110000000
          179 670 -85 callgsubr
          -110 -739 -52 callgsubr
        </CharString>
        <CharString name="ae">
          142 callgsubr
          hstem
          65 35 339 35 342 35 vstem
          851 260 -73 callsubr
        </CharString>
        <CharString name="aeacute">
          142 callgsubr
          87 138 hstem
          65 35 339 35 342 35 vstem
          599 738 -55 callsubr
          378 -345 -73 callsubr
        </CharString>
        <CharString name="agrave">
          -75 callgsubr
          87 138 54 callgsubr
          hintmask 10111110
          306 605 -86 callgsubr
          69 -746 rmoveto
          -71 callsubr
          hintmask 01111110
          -107 callgsubr
          hintmask 10111110
          -98 callsubr
          endchar
        </CharString>
        <CharString name="amacron">
          -75 callgsubr
          188 36 hstemhm
          65 35 74 225 40 35 hintmask 10111111
          174 706 -47 callgsubr
          75 -750 rmoveto
          -71 callsubr
          hintmask 01111111
          -107 callgsubr
          hintmask 10111111
          -98 callsubr
          endchar
        </CharString>
        <CharString name="ampersand">
          99 -8 32 308 34 298 32 hstemhm
          77 35 -29 35 414 35 hintmask 11110100
          532 366 rmoveto
          -331 vlineto
          -9 -54 -63 -2 -52 hhcurveto
          -168 -83 20 133 92 15 63 162 hvcurveto
          115 34 -115 hlineto
          hintmask 11101100
          -162 -9 88 59 106 30 45 235 44 77 -7 -9 59 hvcurveto
          32 vlineto
          9 -55 -86 7 -60 hhcurveto
          -236 -43 -68 -113 -100 39 -43 80 -19 hvcurveto
          -4 vlineto
          hintmask 11110100
          -81 -19 -44 -34 -112 vvcurveto
          -124 36 -68 250 106 98 16 0 vhcurveto
          324 122 34 vlineto
          endchar
        </CharString>
        <CharString name="aogonek">
          -61 122 callsubr
          -74 callsubr
          hstemhm
          65 35 280 34 25 35 hintmask 00000000
          hintmask 11011111
          461 -164 rmoveto
          -35 -12 20 25 hvcurveto
          hintmask 10111101
          43 36 55 24 21 vhcurveto
          330 vlineto
          153 -32 35 -165 -72 -64 -5 -7 -40 vhcurveto
          -33 vlineto
          7 39 76 6 47 hhcurveto
          150 26 -13 -149 hvcurveto
          -46 vlineto
          2 -77 -114 3 -32 hhcurveto
          -118 -33 -34 -111 hvcurveto
          hintmask 11011101
          -122 58 -24 126 71 91 8 83 28 vhcurveto
          4 hlineto
          3 -79 rlineto
          hintmask 11011111
          -38 -36 -28 -50 -44 vvcurveto
          -38 21 -32 -45 callgsubr
          hintmask 11011101
          -22 374 rmoveto
          -50 -6 -36 -18 -40 vhcurveto
          -49 callsubr
          -120 -28 21 93 0 callgsubr
          hvcurveto
          213 hlineto
          endchar
        </CharString>
        <CharString name="approxequal">
          -138 119 33 18 33 106 -35 callsubr
          77 -20 callgsubr
          hintmask 01011100
          77 298 rmoveto
          27 hlineto
          45 5 17 30 85 callsubr
          vhcurveto
          hintmask 01111100
          -14 41 23 callgsubr
          -190 vmoveto
          127 callgsubr
          hintmask 11011100
          -14 42 23 callgsubr
          endchar
        </CharString>
        <CharString name="aring">
          -75 callgsubr
          94 124 callsubr
          hstemhm
          65 35 74 125 callsubr
          40 35 hintmask 1011111111000000
          286 612 -87 callsubr
          -37 -648 rmoveto
          -71 callsubr
          hintmask 0111111111000000
          -23 callgsubr
          0 callgsubr
          hvcurveto
          213 -41 hlineto
          -50 -6 -36 -18 -40 vhcurveto
          53 callsubr
        </CharString>
        <CharString name="aringacute">
          -75 callgsubr
          94 124 callsubr
          35 138 hstemhm
          65 35 74 125 callsubr
          40 35 hintmask 1011111111100000
          272 834 -103 callsubr
          14 -227 -87 callsubr
          -37 -648 rmoveto
          -71 callsubr
          hintmask 0111111111100000
          -107 callgsubr
          hintmask 1011111111100000
          -98 callsubr
          endchar
        </CharString>
        <CharString name="arrowboth">
          97 callsubr
          310 192 rmoveto
          -43 95 rlineto
          348 hlineto
          -42 -95 134 callsubr
          -348 hlineto
          43 96 -255 -113 rlineto
          endchar
        </CharString>
        <CharString name="arrowdown">
          -240 688 -20 hstem
          181 34 vstem
          198 -85 rmoveto
          112 255 -95 -43 rlineto
          561 -34 -561 vlineto
          -96 43 rlineto
          endchar
        </CharString>
        <CharString name="arrowdown.ss01">
          -290 171 285 hstem
          30 285 vstem
          173 171 rmoveto
          142 285 rlineto
          -285 hlineto
          endchar
        </CharString>
        <CharString name="arrowleft">
          97 callsubr
          257 287 rmoveto
          571 34 -571 hlineto
          43 96 -245 -113 245 -112 rlineto
          endchar
        </CharString>
        <CharString name="arrowleft.ss01">
          -272 201 285 hstem
          30 285 vstem
          315 201 rmoveto
          285 vlineto
          -285 -143 rlineto
          endchar
        </CharString>
        <CharString name="arrowright">
          97 callsubr
          573 192 rmoveto
          134 callsubr
          -560 -34 560 hlineto
          endchar
        </CharString>
        <CharString name="arrowright.ss01">
          -272 201 285 hstem
          48 285 vstem
          48 201 rmoveto
          285 142 -285 143 rlineto
          endchar
        </CharString>
        <CharString name="arrowup">
          -240 691 -20 hstem
          181 34 vstem
          181 -81 rmoveto
          34 559 hlineto
          95 -42 -112 255 -113 -255 96 42 rlineto
          endchar
        </CharString>
        <CharString name="arrowup.ss01">
          -290 516 -20 hstem
          30 285 vstem
          30 231 rmoveto
          285 hlineto
          -142 285 rlineto
          endchar
        </CharString>
        <CharString name="arrowupdn">
          -240 696 11 callsubr
          endchar
        </CharString>
        <CharString name="arrowupdnbse">
          -240 -163 34 825 11 callsubr
          -30 -333 rmoveto
          285 34 -285 hlineto
          endchar
        </CharString>
        <CharString name="asciicircum">
          -165 726 23 hstem
          70 330 vstem
          363 444 rmoveto
          37 hlineto
          -139 305 rlineto
          -52 hlineto
          -139 -305 rlineto
          37 hlineto
          128 282 rlineto
          endchar
        </CharString>
        <CharString name="asciitilde">
          -138 260 -35 callsubr
          77 -20 callgsubr
          hintmask 00000000
          hintmask 11110000
          420 355 rmoveto
          -94 callsubr
          hintmask 01110000
          -99 callsubr
          31 vhcurveto
          hintmask 11110000
          -14 42 39 -14 40 hhcurveto
          52 10 25 70 hvcurveto
          endchar
        </CharString>
        <CharString name="asterisk">
          -197 688 -20 hstem
          202.5 33 vstem
          233 480 rmoveto
          135 -84 19 33 -140 75 140 76 -19 33 -136 -85 6 160 rlineto
          -38 hlineto
          5 -160 -135 85 -19 -33 140 -76 -140 -75 19 -33 135 84 -5 -159 rlineto
          38 hlineto
          endchar
        </CharString>
        <CharString name="asterisk.ss02">
          182 -14 719 hstem
          35 747 vstem
          178 -14 rmoveto
          231 170 231 -170 -90 276 232 174 rlineto
          -288 hlineto
          -85 269 -87 -269 rlineto
          -287 hlineto
          234 -174 rlineto
          endchar
        </CharString>
        <CharString name="at">
          289 -108 31 145 32 -25 30 182 32 167 32 139 39 hstemhm
          90 33 163 35 280 35 164 34 hintmask 1011111111000000
          462 -108 rmoveto
          121 22 0 2 31 hvcurveto
          32 vlineto
          -2 -29 -55 -1 -90 hhcurveto
          -70 -56 3 3 -24 hvcurveto
          -181 19 -8 68 278 vvcurveto
          278 8 68 163 17 vhcurveto
          42 5 56 4 69 70 56 -4 43 hflex1
          162 -17 8 -68 -278 vvcurveto
          -186 -25 -3 -53 vhcurveto
          -86 253 hlineto
          130 -27 30 -141 -57 -56 -4 -6 -38 vhcurveto
          -33 vlineto
          6 31 65 5 42 hhcurveto
          126 20 -10 -124 hvcurveto
          -37 vlineto
          2 -61 -97 2 -28 hhcurveto
          -101 -28 -32 -94 hvcurveto
          hintmask 1101111111000000
          -104 49 -21 108 60 75 7 71 23 vhcurveto
          4 hlineto
          hintmask 1011111111000000
          3 -71 rlineto
          102 hlineto
          92 32 9 210 349 -5 53 -367 -367 -5 -53 -349 -349 5 -53 367 hvcurveto
          hintmask 1101111111000000
          -20 208 rmoveto
          -99 -22 16 77 83 19 11 83 hvcurveto
          178 -33 hlineto
          -121 -41 -33 -118 vhcurveto
          endchar
        </CharString>
        <CharString name="atilde">
          -75 callgsubr
          130 99 callgsubr
          hintmask 1011111010000000
          458 743 rmoveto
          -94 callsubr
          hintmask 1011011101000000
          -101 callsubr
          hintmask 1011111010000000
          -91 callgsubr
          hintmask 1011011001000000
          -209 -751 rmoveto
          -71 callsubr
          hintmask 0111011001000000
          -107 callgsubr
          hintmask 1011011001000000
          -98 callsubr
          endchar
        </CharString>
        <CharString name="b">
          120 callsubr
          hstemhm
          100 35 351 35 hintmask 10111000
          320 -8 rmoveto
          56 callsubr
          hintmask 01111000
          -743 28 vlineto
          hintmask 10111000
          3 83 rlineto
          4 hlineto
          -80 28 77 -11 80 hhcurveto
          -10 32 rmoveto
          -88 -54 23 56 -18 hvcurveto
          -15 45 0 47 60 vvcurveto
          62 1 47 15 45 vhcurveto
          53 18 52 24 89 101 callgsubr
        </CharString>
        <CharString name="backslash">
          140 callgsubr
          291 -55 rmoveto
          37 hlineto
          -290 798 rlineto
          -38 hlineto
          endchar
        </CharString>
        <CharString name="bar">
          118 callgsubr
          -161 rmoveto
          35 904 -35 hlineto
          endchar
        </CharString>
        <CharString name="bar.ss02">
          -137 94 callgsubr
          -1 500 vstem
          -1 hmoveto
          500 696 -500 hlineto
          endchar
        </CharString>
        <CharString name="braceleft">
          -335 282 29 hstem
          30 60 50 35 vstem
          243 -150 rmoveto
          37 hlineto
          -61 38 -44 73 64 vvcurveto
          121 vlineto
          77 -23 54 -62 17 vhcurveto
          5 vlineto
          62 17 23 54 77 vvcurveto
          121 vlineto
          64 44 73 61 38 vhcurveto
          -37 hlineto
          -60 -31 -43 -79 -77 vvcurveto
          -115 vlineto
          -63 -26 -67 -84 vhcurveto
          -29 vlineto
          84 26 -67 -63 hvcurveto
          -115 vlineto
          -77 43 -79 60 -31 vhcurveto
          endchar
        </CharString>
        <CharString name="braceright">
          -335 282 29 hstem
          125 35 50 60 vstem
          20 -150 rmoveto
          37 hlineto
          60 31 43 79 77 vvcurveto
          115 vlineto
          63 26 67 84 vhcurveto
          29 vlineto
          -84 -26 67 63 hvcurveto
          115 vlineto
          77 -43 79 -60 31 vhcurveto
          -37 hlineto
          61 -38 44 -73 -64 vvcurveto
          -121 vlineto
          -77 23 -54 62 -17 vhcurveto
          -5 vlineto
          -62 -17 -23 -54 -77 vvcurveto
          -121 vlineto
          -64 -44 -73 -61 -38 vhcurveto
          endchar
        </CharString>
        <CharString name="bracketleft">
          -326 -150 35 823 35 hstem
          115 35 vstem
          115 -150 rmoveto
          154 33 hlineto
          -119 4 rlineto
          819 vlineto
          119 4 rlineto
          33 -154 vlineto
          endchar
        </CharString>
        <CharString name="bracketleft.ss02">
          46 callgsubr
          hvcurveto
          -348 vlineto
          endchar
        </CharString>
        <CharString name="bracketright">
          -326 -150 35 823 35 hstem
          159 35 vstem
          40 -150 rmoveto
          154 893 -154 -33 hlineto
          119 -4 rlineto
          -819 vlineto
          -119 -4 rlineto
          endchar
        </CharString>
        <CharString name="bracketright.ss02">
          -238 94 callgsubr
          0 352 vstem
          0 vmoveto
          352 348 hlineto
          121 callsubr
          vhcurveto
          endchar
        </CharString>
        <CharString name="breve">
          -338 602 28 hstem
          20 -34 callgsubr
          vstem
          277 -67 callsubr
          endchar
        </CharString>
        <CharString name="brokenbar">
          118 callgsubr
          390 rmoveto
          35 353 -35 hlineto
          -904 vmoveto
          35 353 -35 hlineto
          endchar
        </CharString>
        <CharString name="bullet">
          -280 241 205 hstem
          75 205 vstem
          280 342 rmoveto
          90 -4 14 -100 -97 -4 -14 -90 -87 4 -14 97 100 4 14 87 vhcurveto
          endchar
        </CharString>
        <CharString name="bullet.ss02">
          148 -8 60 155 60 -36 60 105 60 -35 60 155 60 hstemhm
          40 60 155 60 -36 60 105 60 -36 60 155 60 hintmask 0000000000000000
          hintmask 0010111011000000
          392 421 rmoveto
          62 50 39 73 90 -76 73 -36 -37 -76 -73 -90 -73 50 -39 63 hvcurveto
          60 vmoveto
          -30 -23 18 34 57 36 46 17 17 35 -46 -57 -34 -23 -18 -29 hvcurveto
          -189 -250 rmoveto
          hintmask 0011001100000000
          73 39 50 63 62 -39 50 -73 -90 -73 -76 -36 hvcurveto
          hintmask 0010111011000000
          -37 73 -76 90 vhcurveto
          hintmask 0011001100110000
          378 hmoveto
          89 73 76 37 36 -73 76 -89 -74 -39 -50 -62 -63 39 -50 74 hvcurveto
          -378 60 rmoveto
          -57 -46 36 17 17 46 35 57 34 18 -23 -29 -30 -18 -23 -34 hvcurveto
          378 hmoveto
          -35 -18 23 30 29 18 23 35 56 46 -35 -17 -17 -46 -36 -56 hvcurveto
          hintmask 1100000011000000
          -189 -299 rmoveto
          36 76 73 90 73 -50 39 -62 -63 -50 -39 -73 -90 76 -73 37 hvcurveto
          60 vmoveto
          -17 -36 46 57 34 23 18 30 29 23 -18 -34 -57 -35 -46 -17 hvcurveto
          endchar
        </CharString>
        <CharString name="c">
          135 callsubr
          hstem
          75 35 vstem
          406 4 -84 callgsubr
        </CharString>
        <CharString name="cacute">
          135 callsubr
          87 138 hstem
          75 35 vstem
          212 605 -103 callsubr
          194 -606 -84 callgsubr
        </CharString>
        <CharString name="cacute.loclPLK">
          135 callsubr
          87 138 hstem
          75 35 vstem
          212 -29 callsubr
          194 -606 -84 callgsubr
        </CharString>
        <CharString name="caron">
          -335 605 30 hstem
          20 260 vstem
          127 -80 callsubr
          endchar
        </CharString>
        <CharString name="caron.loclCSY">
          136 callgsubr
          39 vstem
          53 454 22 callgsubr
          endchar
        </CharString>
        <CharString name="ccaron">
          -177 143 callsubr
          vstem
          206 -80 callsubr
          307 -734 -84 callgsubr
        </CharString>
        <CharString name="ccedilla">
          -177 -8 32 -31 31 462 32 hstemhm
          75 35 hintmask 10110000
          281 24 rmoveto
          -148 -23 37 195 187 23 43 145 37 51 -5 -7 35 hvcurveto
          33 vlineto
          6 -32 -54 5 -44 hhcurveto
          -159 -37 -52 -212 hvcurveto
          hintmask 01110000
          -167 13 -75 126 -17 102 callgsubr
          10 12 0 12 hhcurveto
          45 54 5 7 31 hvcurveto
          33 vlineto
          -7 -30 -53 -6 -42 hhcurveto
          endchar
        </CharString>
        <CharString name="ccircumflex">
          135 callsubr
          195 30 hstem
          75 35 vstem
          99 -82 callgsubr
          307 -606 -84 callgsubr
        </CharString>
        <CharString name="cdotaccent">
          135 callsubr
          152 61 hstem
          75 35 97 43 vstem
          207 43 callsubr
          199 -727 -84 callgsubr
        </CharString>
        <CharString name="cedilla">
          -511 -190 198 hstem
          20 84 vstem
          20 89 callgsubr
        </CharString>
        <CharString name="cent">
          -168 13 -21 76 33 484 34 77 -20 hstem
          75 37 149 34 vstem
          412 116 rmoveto
          -29 -8 -49 -6 -39 -1 rrcurveto
          484 vlineto
          41 44 -5 -7 27 hvcurveto
          34 vlineto
          -32 5 -41 5 -39 2 rrcurveto
          77 -34 -77 vlineto
          -138 -3 -48 -41 -233 vvcurveto
          -213 29 -55 157 -6 vhcurveto
          -76 34 76 vlineto
          44 1 48 6 25 5 rrcurveto
          -300 264 rmoveto
          198 27 38 122 5 vhcurveto
          -483 vlineto
          -125 5 -24 37 200 vvcurveto
          endchar
        </CharString>
        <CharString name="circumflex">
          -335 713 30 hstem
          20 260 vstem
          20 -82 callgsubr
          endchar
        </CharString>
        <CharString name="colon">
          -459 0 65 380 65 hstem
          64 48 vstem
          64 137 callsubr
          -510 vmoveto
          48 65 -48 hlineto
          endchar
        </CharString>
        <CharString name="comma">
          -459 -101 21 80 65 hstem
          84 28 vstem
          34 -80 rmoveto
          79 callgsubr
        </CharString>
        <CharString name="copyright">
          89 -8 26 136 30 320 30 136 26 hstem
          90 29 120 31 335 29 vstem
          362 -8 rmoveto
          267 60 callgsubr
          -267 -267 -5 -39 -313 -313 5 -39 267 hvcurveto
          26 46 callsubr
          23 136 rmoveto
          29 36 2 3 22 hvcurveto
          30 vlineto
          -3 -20 -35 -2 -28 hhcurveto
          -107 -12 13 147 147 12 13 107 27 34 -2 -3 20 hvcurveto
          29 vlineto
          4 -16 -36 2 -33 hhcurveto
          -126 -20 -20 -170 -172 20 -18 126 hvcurveto
          endchar
        </CharString>
        <CharString name="currency">
          128 69 32 486 32 hstem
          166 35 360 35 vstem
          97 -17 rmoveto
          119 119 rlineto
          -25 31 51 -8 83 hhcurveto
          82 51 8 24 32 hvcurveto
          119 -119 23 23 -120 120 rlineto
          25 41 3 68 109 vvcurveto
          109 -3 68 -25 42 vhcurveto
          119 119 -22 22 -118 -118 rlineto
          26 -31 -51 8 -84 hhcurveto
          -83 -51 -8 -25 -32 hvcurveto
          -117 117 -23 -23 119 -119 rlineto
          -25 -41 -3 -68 -109 vvcurveto
          -110 3 -68 26 -40 vhcurveto
          -120 -120 rlineto
          306 96 rmoveto
          -180 0 37 205 205 0 39 180 180 0 -39 -205 -205 0 -37 -180 hvcurveto
          endchar
        </CharString>
        <CharString name="d">
          120 callsubr
          92 callsubr
          hintmask 10111000
          13 callgsubr
          hintmask 01111000
          -43 callsubr
          hintmask 10111000
          -214 31 -49 170 vhcurveto
          10 32 -70 callgsubr
          endchar
        </CharString>
        <CharString name="dagger">
          -224 21 -21 469 30 189 -20 hstem
          190 31 vstem
          193 hmoveto
          25 hlineto
          6 466 107 callgsubr
          -6 186 rlineto
          -25 hlineto
          -6 -186 96 callsubr
          endchar
        </CharString>
        <CharString name="daggerdbl">
          -224 21 -21 189 30 250 30 189 -20 hstemhm
          187 37 -34 31 hintmask 11110100
          193 hmoveto
          hintmask 11111000
          25 hlineto
          6 186 107 callgsubr
          rlineto
          244 vlineto
          107 callgsubr
          rlineto
          hintmask 11110100
          -6 186 rlineto
          hintmask 11111000
          -25 hlineto
          -6 -186 96 callsubr
          -244 vlineto
          96 callsubr
          endchar
        </CharString>
        <CharString name="dcaron">
          120 callsubr
          170 -20 92 callsubr
          67 39 hintmask 10111110
          13 callgsubr
          hintmask 01111110
          -43 callsubr
          hintmask 10111110
          -214 31 -49 170 vhcurveto
          275 462 22 callgsubr
          -277 -575 -70 callgsubr
          endchar
        </CharString>
        <CharString name="dcroat">
          120 callsubr
          138 32 92 callsubr
          hintmask 10111100
          565 688 rmoveto
          -69 55 -35 -55 -151 -32 151 -220 2 callsubr
          -214 31 -49 170 80 77 11 80 28 hvcurveto
          4 hlineto
          hintmask 01111100
          -30 callgsubr
          656 69 hlineto
          hintmask 10111100
          -120 -556 rmoveto
          -53 -17 -54 -23 -88 hhcurveto
          -58 callsubr
          148 94 52 -24 -62 21 hvcurveto
          12 -36 1 -47 -48 vvcurveto
          -74 0 -47 -16 -48 vhcurveto
          endchar
        </CharString>
        <CharString name="degree">
          -250 397 31 237 31 hstem
          70 34 177 34 vstem
          193 34 callsubr
          31 vmoveto
          -89 0 19 99 99 0 20 89 88 0 -20 -99 -99 0 -19 -88 hvcurveto
          endchar
        </CharString>
        <CharString name="dialog">
          170 92 callgsubr
          59 60 567 60 vstem
          306 -212 rmoveto
          213 212 rlineto
          227 688 -687 -688 247 60 -187 568 567 -568 -192 hlineto
          -188 -187 rlineto
          endchar
        </CharString>
        <CharString name="dieresis">
          -372 670 61 hstem
          20 55 callgsubr
          vstem
          20 670 -85 callgsubr
          endchar
        </CharString>
        <CharString name="divide">
          -95 32 61 144 32 144 61 hstem
          248 44 vstem
          248 413 rmoveto
          44 61 -44 hlineto
          -178 -237 rmoveto
          74 callgsubr
          178 -237 rmoveto
          44 61 -44 hlineto
          endchar
        </CharString>
        <CharString name="dollar">
          -98 -8 109 -33 33 -22 34 213 35 -26 35 216 33 -33 110 hstemhm
          80 36 138 34 133 36 hintmask 0000000000000000
          hintmask 0101001111000000
          457 215 rmoveto
          110 -18 25 -84 8 vhcurveto
          -67 6 rlineto
          222 vlineto
          45 -2 51 -4 45 -7 rrcurveto
          hintmask 1001010111000000
          34 vlineto
          -37 6 -54 5 -50 1 rrcurveto
          hintmask 1001001111000000
          77 -34 vlineto
          hintmask 1000110111000000
          -77 vlineto
          -112 -2 -62 -19 -130 vvcurveto
          -93 23 -28 89 -9 vhcurveto
          62 -6 rlineto
          -231 vlineto
          hintmask 0011001111000000
          -61 1 -31 2 -66 9 rrcurveto
          -34 vlineto
          hintmask 0101001111000000
          40 -5 59 -4 59 -2 rrcurveto
          hintmask 1001001111000000
          -76 34 vlineto
          hintmask 0101001111000000
          76 vlineto
          120 2 49 26 119 vvcurveto
          hintmask 1000101111000000
          -265 158 rmoveto
          -59 6 -17 11 85 vvcurveto
          106 57 5 81 vhcurveto
          -219 vlineto
          34 -266 rmoveto
          hintmask 1001001111000000
          228 vlineto
          61 -6 rlineto
          52 -5 20 -5 -98 vvcurveto
          hintmask 1000101111000000
          -88 -22 -26 -111 vhcurveto
          endchar
        </CharString>
        <CharString name="dotaccent">
          -552 670 61 hstem
          20 43 vstem
          20 43 callsubr
          endchar
        </CharString>
        <CharString name="dotbelowcomb">
          -127 65 hstem
          -112 48 vstem
          -112 -127 -77 callgsubr
        </CharString>
        <CharString name="dotlessi">
          22 callsubr
          hstem
          100 35 vstem
          100 hmoveto
          3 callsubr
          endchar
        </CharString>
        <CharString name="e">
          -45 callsubr
          108 callsubr
          487 256 -106 callsubr
          endchar
        </CharString>
        <CharString name="eacute">
          21 callgsubr
          411 738 -55 callsubr
          202 -349 -106 callsubr
          endchar
        </CharString>
        <CharString name="ebreve">
          -45 callsubr
          84 28 hstem
          75 35 42 -34 callgsubr
          43 35 vstem
          280 602 rmoveto
          128 1 59 82 hvcurveto
          -31 hlineto
          -75 -2 -38 -96 -96 -1 38 75 vhcurveto
          -31 hlineto
          -82 0 -59 128 vhcurveto
          207 -346 -106 callsubr
          endchar
        </CharString>
        <CharString name="ecaron">
          -45 callsubr
          87 30 108 callsubr
          304 605 rmoveto
          -96 callsubr
          107 -133 rlineto
          229 -349 -106 callsubr
          endchar
        </CharString>
        <CharString name="ecircumflex">
          -45 callsubr
          195 30 108 callsubr
          281 713 -60 callsubr
          309 -349 -106 callsubr
          endchar
        </CharString>
        <CharString name="edieresis">
          -45 callsubr
          152 61 hstem
          75 35 59 55 callgsubr
          60 35 vstem
          212 731 57 callgsubr
          95 -414 -106 callsubr
          endchar
        </CharString>
        <CharString name="edotaccent">
          -45 callsubr
          152 61 hstem
          75 35 149 43 150 35 vstem
          302 731 rmoveto
          -43 -61 43 hlineto
          185 -414 -106 callsubr
          endchar
        </CharString>
        <CharString name="egrave">
          21 callgsubr
          314 5 callsubr
          200 -349 -106 callsubr
          endchar
        </CharString>
        <CharString name="eight">
          47 -8 34 305 34 297 34 hstemhm
          85 139 callsubr
          341 -65 callgsubr
        </CharString>
        <CharString name="eight.dnom">
          -236 -4 67 callgsubr
          -4 -51 callgsubr
        </CharString>
        <CharString name="eight.numr">
          -236 304 67 callgsubr
          304 -51 callgsubr
        </CharString>
        <CharString name="eight.tnum">
          25 -8 34 305 34 297 34 hstemhm
          74 139 callsubr
          330 -65 callgsubr
        </CharString>
        <CharString name="ellipsis">
          -107 0 65 hstem
          64 48 128 48 128 48 vstem
          64 hmoveto
          48 65 -48 hlineto
          176 -65 rmoveto
          48 65 -48 hlineto
          176 -65 -77 callgsubr
        </CharString>
        <CharString name="emacron">
          -45 callsubr
          188 36 hstem
          75 35 58 225 59 35 vstem
          393 742 137 callgsubr
          94 -450 -106 callsubr
          endchar
        </CharString>
        <CharString name="emdash">
          236 287 34 hstem
          65 741 vstem
          65 287 rmoveto
          741 34 -741 hlineto
          endchar
        </CharString>
        <CharString name="endash">
          -165 287 34 hstem
          65 340 vstem
          65 287 rmoveto
          340 34 -340 hlineto
          endchar
        </CharString>
        <CharString name="eng">
          76 callsubr
          317 518 rmoveto
          -128 -38 -44 -47 -16 hvcurveto
          -4 hlineto
          hintmask 11011100
          -37 callgsubr
          hintmask 11101100
          -68 callgsubr
          -428 vlineto
          -45 -9 -12 -93 vhcurveto
          -30 vlineto
          93 44 5 92 hvcurveto
          423 vlineto
          -12 callsubr
          vhcurveto
          endchar
        </CharString>
        <CharString name="eogonek">
          -73 122 callsubr
          -27 callsubr
          hstem
          75 35 255 34 53 35 vstem
          487 256 rmoveto
          204 -11 58 -182 -212 -7 -65 -199 -210 27 -52 189 44 51 3 4 40 vhcurveto
          -36 -36 -25 -47 -42 vvcurveto
          -38 21 -32 -45 callgsubr
          -35 -12 21 24 43 39 57 29 24 hvcurveto
          -100 callsubr
          endchar
        </CharString>
        <CharString name="equal">
          -95 137 32 168 32 hstem
          70 400 vstem
          70 337 rmoveto
          74 callgsubr
          -232 vmoveto
          74 callgsubr
          endchar
        </CharString>
        <CharString name="estimated">
          91 -8 34 297 34 305 34 hstemhm
          90 36 471 36 -33 36 hintmask 11110100
          126 323 rmoveto
          510 21 hlineto
          127 callsubr
          -313 16 -39 257 vhcurveto
          hintmask 11111000
          211 48 26 182 11 hvcurveto
          -36 hlineto
          -170 -11 -46 -4 -177 hhcurveto
          hintmask 11110100
          -212 -24 6 291 -1 hvcurveto
          237 339 rmoveto
          214 22 -6 -299 1 hvcurveto
          -474 hlineto
          299 1 22 6 214 hhcurveto
          endchar
        </CharString>
        <CharString name="eth">
          -12 callgsubr
          177 -20 95 callsubr
          24 -1 52 -8 55 hvcurveto
          -13 90 -42 92 -40 57 79 14 rcurveline
          32 vlineto
          -100 -18 -32 39 -28 21 -9 6 rlinecurve
          -43 -4 hlineto
          11 -8 30 -23 33 -38 -99 -17 rcurveline
          -32 vlineto
          122 21 30 -40 29 -53 21 -65 rlinecurve
          -6 -2 rlineto
          24 -33 -48 12 -68 -21 callgsubr
          hvcurveto
          -87 callgsubr
          -77 -155 -66 callsubr
          hvcurveto
          endchar
        </CharString>
        <CharString name="exclam">
          -437 97 callgsubr
          hintmask 11010000
          85 173 rmoveto
          -22 callgsubr
          hintmask 11100000
          -10 -173 -77 callgsubr
        </CharString>
        <CharString name="exclam.case">
          -437 97 callgsubr
          hintmask 11010000
          85 173 rmoveto
          -22 callgsubr
          hintmask 11100000
          -10 -173 -77 callgsubr
        </CharString>
        <CharString name="exclam.ss02">
          159 -8 45 72 82 460 45 hstem
          45 45 273 68 273 45 vstem
          397 -8 rmoveto
          194 158 158 194 194 -158 158 -194 -194 -158 -158 -194 -194 158 -158 194 hvcurveto
          45 vmoveto
          -169 -138 138 169 169 138 138 169 169 138 -138 -169 -169 -138 -138 -169 hvcurveto
          -20 231 rmoveto
          40 hlineto
          8 55 6 88 69 vvcurveto
          99 -68 -99 vlineto
          -69 6 -88 8 -55 vhcurveto
          -14 -159 rmoveto
          68 82 -68 hlineto
          endchar
        </CharString>
        <CharString name="exclamdbl">
          -250 97 callgsubr
          144 48 -43 38 hintmask 11010100
          85 173 rmoveto
          -22 callgsubr
          187 hmoveto
          -22 callgsubr
          hintmask 11101000
          -197 -173 rmoveto
          48 65 -48 hlineto
          187 -65 -77 callgsubr
        </CharString>
        <CharString name="exclamdown">
          -437 445 65 hstemhm
          75 48 -43 38 hintmask 00000000
          hintmask 11000000
          75 137 callsubr
          hintmask 10100000
          35 callsubr
        </CharString>
        <CharString name="exclamdown.case">
          -437 21 -21 515 -20 128 65 hstemhm
          75 48 -43 38 hintmask 00000000
          hintmask 11110000
          75 623 rmoveto
          48 65 -48 hlineto
          hintmask 11101000
          35 callsubr
        </CharString>
        <CharString name="f">
          -291 70 callgsubr
          vstem
          138 hmoveto
          -64 callgsubr
          endchar
        </CharString>
        <CharString name="f_f">
          53 70 callgsubr
          309 35 vstem
          138 hmoveto
          -64 callgsubr
          344 -478 rmoveto
          -64 callgsubr
          endchar
        </CharString>
        <CharString name="fi">
          -56 86 callgsubr
          172 61 -30 30 hstemhm
          138 35 267 43 -39 35 hintmask 11011010
          138 hmoveto
          -64 callgsubr
          hintmask 11101100
          302 204 rmoveto
          43 61 -43 hlineto
          hintmask 11011010
          4 -743 -21 callsubr
        </CharString>
        <CharString name="five">
          -19 -8 34 334 34 260 34 hstem
          98 36 366 36 vstem
          90 50 callsubr
          -4 -8 13 callsubr
        </CharString>
        <CharString name="five.dnom">
          -271 -4 104 callgsubr
          35 -11 callgsubr
        </CharString>
        <CharString name="five.numr">
          -271 304 104 callgsubr
          343 -11 callgsubr
        </CharString>
        <CharString name="five.tnum">
          25 -8 34 334 34 260 34 hstem
          118 36 366 36 vstem
          110 50 callsubr
          -5 -7 13 callsubr
        </CharString>
        <CharString name="fiveeighths">
          259 108 callgsubr
          97 33 11 33 116 33 121 33 4 -20 hstemhm
          55 35 192 37 223 37 callgsubr
          hintmask 0000000000000000
          hintmask 0111110111100100
          184 hmoveto
          0 callsubr
          -582 -345 rmoveto
          121 callgsubr
          123 28 32 87 70 -16 37 -119 -34 -36 -2 -4 -24 hvcurveto
          hintmask 1011111011100100
          127 200 33 -235 -194 vlineto
          4 38 39 3 21 hhcurveto
          106 23 -10 -69 -63 -21 -18 -98 hvcurveto
          hintmask 0111110111100100
          -27 -47 3 3 -38 hvcurveto
          hintmask 1010111011100100
          643 -347 -17 callsubr
          hintmask 1010111011011000
          -57 callgsubr
          hintmask 1010111011100100
          -1 callsubr
          hintmask 1010111011011000
          -44 callsubr
          hintmask 1010111011100100
          -50 callgsubr
        </CharString>
        <CharString name="fl">
          -56 70 callgsubr
          271 35 vstem
          138 hmoveto
          -64 callgsubr
          306 -478 rmoveto
          35 743 -35 hlineto
          endchar
        </CharString>
        <CharString name="florin">
          -320 -190 30 638 32 203 30 hstem
          -160 505 vstem
          338 713 rmoveto
          7 30 rlineto
          -111 -60 -4 -220 -48 hvcurveto
          -2 -9 rlineto
          -108 hlineto
          -7 -32 rlineto
          108 hlineto
          -114 -540 rlineto
          -82 -18 -33 -16 -105 hhcurveto
          -7 -30 rlineto
          110 61 4 194 41 hvcurveto
          100 470 rlineto
          136 hlineto
          7 32 rlineto
          -136 hlineto
          4 19 rlineto
          168 36 33 16 106 hhcurveto
          endchar
        </CharString>
        <CharString name="four">
          3 126 callsubr
          439 35 vstem
          438 20 callsubr
        </CharString>
        <CharString name="four.dnom">
          -262 0 123 -33 33 hstemhm
          251 33 hintmask 00000000
          hintmask 10100000
          248 hmoveto
          36 hlineto
          hintmask 01100000
          90 61 33 -61 143 -30 vlineto
          48 callsubr
        </CharString>
        <CharString name="four.numr">
          -262 398 33 hstem
          251 33 vstem
          248 308 rmoveto
          36 90 61 33 -61 143 -30 hlineto
          48 callsubr
        </CharString>
        <CharString name="four.ss01">
          3 21 -21 176 34 426 52 0 -20 hstemhm
          439 35 hintmask 11011000
          474 210 rmoveto
          478 -38 vlineto
          -382 -481 rlineto
          -31 384 -176 36 176 109 34 vlineto
          -484 hmoveto
          hintmask 11101000
          340 426 rlineto
          -426 vlineto
          endchar
        </CharString>
        <CharString name="four.tnum">
          25 126 callsubr
          450 35 vstem
          449 20 callsubr
        </CharString>
        <CharString name="fraction">
          -504 129 callsubr
          -180 491 vstem
          -180 hmoveto
          0 callsubr
          endchar
        </CharString>
        <CharString name="g">
          -27 callgsubr
          92 callsubr
          hintmask 11101100
          280 -206 15 callsubr
          hintmask 11011100
          438 -28 vlineto
          hintmask 11101100
          -97 callgsubr
        </CharString>
        <CharString name="g_tilde.loclGUA">
          -27 callgsubr
          158 -35 callsubr
          75 35 16 -20 callgsubr
          -8 101 callsubr
          hintmask 1110111010000000
          469 743 rmoveto
          -94 callsubr
          hintmask 1110011101000000
          -101 callsubr
          hintmask 1110111010000000
          -91 callgsubr
          hintmask 1101011001000000
          -189 -949 15 callsubr
          438 -28 vlineto
          hintmask 1110011001000000
          -3 -83 rlineto
          -4 hlineto
          80 -28 -77 11 -80 hhcurveto
          -170 -31 -49 -214 -214 31 -49 170 98 59 22 60 24 hvcurveto
          4 -14 hlineto
          -184 -21 -50 -165 -52 -72 3 5 -58 vhcurveto
          -33 vlineto
          hintmask 1101011001000000
          -4 45 78 -3 64 hhcurveto
          hintmask 1110011001000000
          6 230 -31 callsubr
          153 88 54 -23 -65 21 hvcurveto
          12 -36 0 -47 -60 vvcurveto
          -62 -1 -47 -14 -41 vhcurveto
          -57 -19 -52 -24 -89 hhcurveto
          endchar
        </CharString>
        <CharString name="gbreve">
          -27 callgsubr
          112 28 hstemhm
          75 35 59 -34 callgsubr
          35 35 hintmask 1110111110000000
          426 -67 callsubr
          -146 -949 15 callsubr
          hintmask 1101111110000000
          438 -28 vlineto
          hintmask 1110111110000000
          -97 callgsubr
        </CharString>
        <CharString name="gcaron">
          -27 callgsubr
          115 30 92 callsubr
          hintmask 11101110
          275 -80 callsubr
          112 -944 15 callsubr
          hintmask 11011110
          438 -28 vlineto
          hintmask 11101110
          -97 callgsubr
        </CharString>
        <CharString name="gcircumflex">
          -27 callgsubr
          223 30 92 callsubr
          hintmask 11101110
          168 38 callsubr
          -816 15 callsubr
          hintmask 11011110
          438 -28 vlineto
          hintmask 11101110
          -97 callgsubr
        </CharString>
        <CharString name="gcommaaccent">
          -27 callgsubr
          117 65 80 21 hstemhm
          75 35 164 28 159 35 hintmask 1110111110000000
          352 68 callgsubr
          -72 -958 15 callsubr
          hintmask 1101111110000000
          438 -28 vlineto
          hintmask 1110111110000000
          -97 callgsubr
        </CharString>
        <CharString name="gdotaccent">
          -27 callgsubr
          180 61 hstemhm
          75 35 166 43 142 35 hintmask 11101111
          276 43 callsubr
          4 -937 15 callsubr
          hintmask 11011111
          438 -28 vlineto
          hintmask 11101111
          -97 callgsubr
        </CharString>
        <CharString name="germandbls">
          -22 0 32 390 32 264 32 hstemhm
          100 34 360 35 -26 35 hintmask 11110100
          342 hmoveto
          168 28 59 184 132 -43 51 -82 13 hvcurveto
          4 vlineto
          hintmask 11111000
          80 13 36 40 81 vvcurveto
          115 -43 58 -162 -171 -53 -71 -152 vhcurveto
          -527 34 522 vlineto
          164 58 32 124 141 37 -36 -100 -92 -46 -36 -118 vhcurveto
          -41 -32 41 hlineto
          hintmask 11110100
          133 40 -42 -146 -185 -21 -17 -160 hvcurveto
          -73 -32 hlineto
          endchar
        </CharString>
        <CharString name="grave">
          -442 605 -4 callgsubr
          20 153 vstem
          146 605 -86 callgsubr
          endchar
        </CharString>
        <CharString name="gravecomb">
          605 -4 callgsubr
          -173 153 vstem
          -47 605 -86 callgsubr
          endchar
        </CharString>
        <CharString name="gravecomb.case">
          750 -4 callgsubr
          -173 153 vstem
          -47 750 -86 callgsubr
          endchar
        </CharString>
        <CharString name="greater">
          -94 45 416 hstem
          447 23 vstem
          70 45 51 callgsubr
          endchar
        </CharString>
        <CharString name="greaterequal">
          -94 0 32 hstem
          447 23 vstem
          70 174 51 callgsubr
          -211 vmoveto
          74 callgsubr
          endchar
        </CharString>
        <CharString name="guillemotleft">
          -180 304 206 0 -20 hstemhm
          60 315 hintmask 01100000
          192 99 rmoveto
          31 hlineto
          hintmask 10100000
          32 callgsubr
          284 -205 rmoveto
          31 hlineto
          32 callgsubr
          endchar
        </CharString>
        <CharString name="guillemotright">
          -180 304 206 0 -20 hstemhm
          80 315 hintmask 01100000
          80 99 rmoveto
          31 hlineto
          hintmask 10100000
          32 callsubr
          33 -205 rmoveto
          31 hlineto
          32 callsubr
          endchar
        </CharString>
        <CharString name="guilsinglleft">
          -332 510 -20 hstem
          60 163 vstem
          192 99 rmoveto
          31 hlineto
          32 callgsubr
          endchar
        </CharString>
        <CharString name="guilsinglright">
          -332 510 -20 hstem
          80 163 vstem
          80 99 rmoveto
          31 hlineto
          32 callsubr
          endchar
        </CharString>
        <CharString name="h">
          30 callsubr
          hstem
          100 35 334 7 callsubr
          endchar
        </CharString>
        <CharString name="hbar">
          30 callsubr
          138 32 61 callsubr
          317 518 rmoveto
          -128 -37 -46 -37 -13 hvcurveto
          -4 221 151 32 -151 55 -35 -55 -69 -32 69 -656 35 264 hlineto
          -68 callgsubr
          -315 35 320 vlineto
          -12 callsubr
          vhcurveto
          endchar
        </CharString>
        <CharString name="hcircumflex">
          30 callsubr
          373 30 61 callsubr
          -12 783 rmoveto
          27 hlineto
          -104 callgsubr
          -88 callgsubr
          481 -788 rmoveto
          69 callsubr
          -37 -46 -37 -13 vhcurveto
          -4 308 -35 -743 35 264 hlineto
          -41 callsubr
        </CharString>
        <CharString name="hookabovecomb">
          763 27 hstem
          -186 28 101 31 vstem
          -186 606 rmoveto
          28 hlineto
          26 0 2 45 12 vhcurveto
          -106 callgsubr
          endchar
        </CharString>
        <CharString name="hookabovecomb.case">
          885 27 hstem
          -186 28 101 31 vstem
          -186 728 rmoveto
          28 hlineto
          26 0 2 45 12 vhcurveto
          -106 callgsubr
          endchar
        </CharString>
        <CharString name="house">
          108 0 33 634 27 hstem
          60 36 551 36 vstem
          60 hmoveto
          623 405 hlineto
          -291 289 rlineto
          -41 hlineto
          -291 -289 rlineto
          36 -372 rmoveto
          361 vlineto
          276 273 275 -273 rlineto
          -361 vlineto
          endchar
        </CharString>
        <CharString name="hungarumlaut">
          -249 605 -4 callgsubr
          20 346 vstem
          20 -52 callsubr
          endchar
        </CharString>
        <CharString name="hyphen">
          66 callsubr
        </CharString>
        <CharString name="i">
          22 callsubr
          192 61 hstemhm
          96 111 callsubr
          hintmask 11110000
          96 682 rmoveto
          43 61 -43 hlineto
          hintmask 11101000
          4 -743 -21 callsubr
        </CharString>
        <CharString name="i.loclTRK">
          22 callsubr
          180 61 hstemhm
          96 111 callsubr
          hintmask 11110000
          96 43 callsubr
          hintmask 11101000
          4 -731 -21 callsubr
        </CharString>
        <CharString name="iacute">
          -400 21 -21 37 callsubr
          100 35 vstem
          96 605 -103 callsubr
          4 -610 -21 callsubr
        </CharString>
        <CharString name="iacute_j.loclNLD">
          132 callsubr
          115 138 hstem
          100 35 200 35 vstem
          101 605 -103 callsubr
          235 -5 -103 callsubr
          -236 -610 rmoveto
          3 callsubr
          133 -710 -59 callsubr
        </CharString>
        <CharString name="ibreve">
          22 callsubr
          112 28 hstem
          -11 31 80 35 80 31 vstem
          246 -67 callsubr
          -146 -743 -21 callsubr
        </CharString>
        <CharString name="icircumflex">
          22 callsubr
          223 30 hstem
          100 35 vstem
          -12 38 callsubr
          -610 -21 callsubr
        </CharString>
        <CharString name="idieresis">
          22 callsubr
          180 61 hstem
          6 43 51 35 51 43 vstem
          6 670 -85 callgsubr
          -86 -731 -21 callsubr
        </CharString>
        <CharString name="igrave">
          -400 21 -21 37 callsubr
          100 35 vstem
          112 605 -86 callgsubr
          114 -738 -21 callsubr
        </CharString>
        <CharString name="ij">
          103 callsubr
          96 43 -39 35 196 111 callsubr
          hintmask 11111010
          96 682 rmoveto
          43 61 -43 hlineto
          235 -61 rmoveto
          43 61 -43 hlineto
          hintmask 11110101
          -231 -743 rmoveto
          3 callsubr
          133 -710 -59 callsubr
        </CharString>
        <CharString name="imacron">
          22 callsubr
          216 36 hstemhm
          5 225 -130 35 hintmask 00000000
          hintmask 11110000
          5 706 -47 callgsubr
          hintmask 11101000
          95 -742 -21 callsubr
        </CharString>
        <CharString name="infinity">
          402 57 32 334 32 hstem
          70 35 827 35 vstem
          284 57 rmoveto
          143 54 67 78 38 hvcurveto
          -78 38 54 -67 144 hhcurveto
          177 35 71 128 127 -35 72 -177 -144 -54 -68 -77 -38 hvcurveto
          77 -38 -54 68 -143 hhcurveto
          -177 -37 -72 -127 -128 37 -71 177 hvcurveto
          32 vmoveto
          -152 -27 63 104 104 27 63 152 138 50 -81 -86 29 hvcurveto
          -86 -29 -50 -81 -138 hhcurveto
          471 hmoveto
          -138 -51 81 86 -28 hvcurveto
          86 28 51 81 138 hhcurveto
          151 26 -63 -104 -104 -26 -63 -151 hvcurveto
          endchar
        </CharString>
        <CharString name="integral">
          -256 -190 30 826 30 hstemhm
          141 36 5 35 hintmask 11100000
          80 -190 rmoveto
          hintmask 11010000
          83 54 6 83 4 0 5 -4 69 hvcurveto
          hintmask 11100000
          -34 584 rlineto
          -1 19 -1 21 9 vvcurveto
          44 23 12 79 vhcurveto
          30 vlineto
          -83 -55 -7 -82 -13 0 -8 1 -21 hvcurveto
          hintmask 11010000
          36 -590 rlineto
          4 -73 0 -3 -3 vvcurveto
          -44 -23 -12 -79 vhcurveto
          endchar
        </CharString>
        <CharString name="iogonek">
          -400 -196 32 185 50 callgsubr
          180 61 hstemhm
          38 34 24 111 callsubr
          hintmask 11110100
          96 731 rmoveto
          -61 43 61 vlineto
          hintmask 11111010
          -67 -849 rmoveto
          hintmask 11110010
          40 36 55 27 23 vhcurveto
          510 -35 -510 vlineto
          hintmask 11111010
          -36 -35 -26 -49 -40 vvcurveto
          -41 21 -31 -45 callgsubr
          -35 -12 20 26 hvcurveto
          endchar
        </CharString>
        <CharString name="itilde">
          22 callsubr
          158 -35 callsubr
          -54 27 127 35 127 27 hintmask 00000000
          hintmask 11111110
          289 743 -3 callgsubr
          -189 -743 -21 callsubr
        </CharString>
        <CharString name="j">
          119 callsubr
          192 61 hstemhm
          96 111 callsubr
          hintmask 11110000
          96 682 rmoveto
          43 61 -43 hlineto
          hintmask 11101000
          -98 -943 -59 callsubr
        </CharString>
        <CharString name="jcircumflex">
          119 callsubr
          223 30 hstem
          100 35 vstem
          -12 -82 callgsubr
          10 -810 -59 callsubr
        </CharString>
        <CharString name="k">
          -115 21 141 callgsubr
          9 callgsubr
          466 -35 -743 35 243 85 hlineto
          endchar
        </CharString>
        <CharString name="kcommaaccent">
          -115 25 callsubr
          83 141 callgsubr
          136 28 9 callgsubr
          466 -35 -743 35 243 85 hlineto
          1 -450 rmoveto
          79 callgsubr
        </CharString>
        <CharString name="kgreenlandic">
          -115 21 141 callgsubr
          9 callgsubr
          233 -35 -510 35 243 85 hlineto
          endchar
        </CharString>
        <CharString name="l">
          -400 21 -21 hstem
          100 35 vstem
          82 callsubr
          endchar
        </CharString>
        <CharString name="lacute">
          -400 21 -21 783 -4 callgsubr
          100 35 vstem
          101 783 -103 callsubr
          -1 -788 rmoveto
          35 743 -35 hlineto
          endchar
        </CharString>
        <CharString name="lcaron">
          -400 129 callsubr
          100 35 70 39 vstem
          82 callsubr
          93 -289 22 callgsubr
          endchar
        </CharString>
        <CharString name="lcommaaccent">
          -400 25 callsubr
          83 -21 hstemhm
          100 35 -6 28 hintmask 11110000
          82 callsubr
          hintmask 11101000
          -21 -950 52 callsubr
          hintmask 11110000
          -48 -65 hlineto
          hintmask 11101000
          36 callsubr
          endchar
        </CharString>
        <CharString name="ldot">
          -400 21 -21 267 65 hstem
          100 35 77 48 vstem
          82 callsubr
          112 -476 -77 callgsubr
        </CharString>
        <CharString name="leftOpenDialog">
          -10 92 callgsubr
          0 60 vstem
          626 628 rmoveto
          60 -566 vlineto
          -60 -688 59 hlineto
          567 60 -566 568 hlineto
          endchar
        </CharString>
        <CharString name="less">
          -94 45 416 hstem
          71 23 vstem
          471 45 69 callgsubr
          endchar
        </CharString>
        <CharString name="lessequal">
          -94 0 32 hstem
          71 23 vstem
          471 174 69 callgsubr
          -356 vmoveto
          74 callgsubr
          endchar
        </CharString>
        <CharString name="logicalnot">
          -96 238 34 hstem
          435 34 vstem
          435 53 rmoveto
          34 219 -399 -34 365 hlineto
          endchar
        </CharString>
        <CharString name="longs">
          -331 70 callgsubr
          vstem
          138 hmoveto
          35 631 hlineto
          66 30 16 106 vhcurveto
          30 vlineto
          -111 -60 -12 -106 hvcurveto
          -115 -108 -32 108 vlineto
          endchar
        </CharString>
        <CharString name="lozenge">
          -95 0 23 643 23 hstem
          62 416 vstem
          244 hmoveto
          52 hlineto
          182 344 -182 345 rlineto
          -52 hlineto
          -182 -345 rlineto
          208 -321 rmoveto
          -171 321 171 322 171 -322 rlineto
          endchar
        </CharString>
        <CharString name="lslash">
          -400 21 -21 hstem
          100 35 vstem
          100 hmoveto
          35 355 hlineto
          69 25 rlineto
          35 vlineto
          -69 -25 rlineto
          353 -35 -366 vlineto
          -66 -23 rlineto
          -35 vlineto
          66 23 rlineto
          endchar
        </CharString>
        <CharString name="m">
          258 21 -21 486 130 callsubr
          294 35 294 35 hintmask 11011100
          758 hmoveto
          35 320 hlineto
          144 -23 54 -144 -114 -38 -44 -47 -14 vhcurveto
          -5 hlineto
          65 -16 -42 26 -100 hhcurveto
          -114 -34 -44 -47 -14 hvcurveto
          -4 hlineto
          hintmask 10111100
          -37 callgsubr
          hintmask 11011100
          123 0 99 155 119 20 -23 -148 vhcurveto
          -315 35 264 vlineto
          134 0 88 155 119 20 -23 -148 vhcurveto
          endchar
        </CharString>
        <CharString name="macron">
          66 callgsubr
        </CharString>
        <CharString name="minus">
          -95 237 32 hstem
          70 400 vstem
          70 237 rmoveto
          74 callgsubr
          endchar
        </CharString>
        <CharString name="minute">
          136 callgsubr
          44 vstem
          55 394 71 callsubr
          endchar
        </CharString>
        <CharString name="multiply">
          -168 89 327 hstem
          70 327 vstem
          233 230 rmoveto
          141 -141 23 23 -141 141 141 141 -22 22 -141 -141 -141 141 -23 -23 141 -141 -140 -140 22 -22 rlineto
          endchar
        </CharString>
        <CharString name="n">
          -31 21 128 callgsubr
          hintmask 11011000
          469 hmoveto
          -63 callgsubr
          hintmask 10111000
          -37 callgsubr
          hintmask 11011000
          -41 callsubr
        </CharString>
        <CharString name="nacute">
          -31 21 -21 486 32 -8 36 callgsubr
          334 35 hintmask 11011100
          285 605 -103 callsubr
          184 -610 -46 callgsubr
        </CharString>
        <CharString name="nacute.loclPLK">
          -31 21 -21 486 32 -8 36 callgsubr
          334 35 hintmask 11011100
          285 -29 callsubr
          184 -610 -46 callgsubr
        </CharString>
        <CharString name="napostrophe">
          120 callgsubr
          87 21 80 65 hstemhm
          54 28 18 125 callgsubr
          hintmask 00000000
          hintmask 11011111
          4 598 rmoveto
          -88 callsubr
          465 -598 rmoveto
          96 callgsubr
          vhcurveto
          hintmask 11011011
          -128 -38 -44 -47 -16 hvcurveto
          -4 hlineto
          hintmask 10111011
          -37 callgsubr
          hintmask 11011011
          -41 callsubr
        </CharString>
        <CharString name="ncaron">
          -31 21 -21 486 32 -8 145 callgsubr
          hintmask 11011100
          279 -80 callsubr
          297 -738 -46 callgsubr
        </CharString>
        <CharString name="ncommaaccent">
          -31 25 callsubr
          83 -21 486 130 callsubr
          178 28 128 35 hintmask 11110111
          469 hmoveto
          -63 callgsubr
          hintmask 11101111
          -37 callgsubr
          hintmask 11110111
          -68 callgsubr
          -206 -522 rmoveto
          79 callgsubr
        </CharString>
        <CharString name="nine">
          13 -8 34 265 34 337 34 hstem
          60 36 426 36 vstem
          291 -8 rmoveto
          143 73 22 95 30 hvcurveto
          18 58 3 78 109 vvcurveto
          108 -2 74 -15 51 vhcurveto
          97 -28 -32 callsubr
        </CharString>
        <CharString name="nine.dnom">
          -257 -4 100 callgsubr
          -4 -39 callsubr
        </CharString>
        <CharString name="nine.numr">
          -257 304 100 callgsubr
          304 -39 callsubr
        </CharString>
        <CharString name="nine.ss01">
          26 21 -21 290 34 338 34 hstem
          75 36 439 36 vstem
          247 hmoveto
          47 hlineto
          187 147 105 150 180 vvcurveto
          184 -62 35 -195 -196 -58 -52 -152 -167 53 -35 179 130 52 13 28 29 vhcurveto
          6 -1 -39 -102 -85 -104 -153 -119 rlinecurve
          84 319 rmoveto
          -156 -64 0 169 135 45 34 175 164 55 -17 -172 -128 -69 -21 -150 hvcurveto
          endchar
        </CharString>
        <CharString name="nine.tnum">
          25 -8 34 265 34 337 34 hstem
          80 36 426 36 vstem
          311 -8 rmoveto
          143 73 22 84 26 hvcurveto
          22 69 3 78 109 vvcurveto
          108 -2 74 -18 61 vhcurveto
          87 -25 -32 callsubr
        </CharString>
        <CharString name="notequal">
          -95 0 169 -32 32 168 32 -32 173 hstemhm
          70 400 hintmask 01101000
          230 137 rmoveto
          240 32 -225 hlineto
          78 168 rlineto
          147 32 -132 hlineto
          hintmask 01011000
          66 141 rlineto
          -36 hlineto
          hintmask 01101000
          -66 -141 rlineto
          -232 -32 217 hlineto
          -78 -168 rlineto
          -139 -32 124 hlineto
          hintmask 10101000
          -64 -137 rlineto
          36 hlineto
          endchar
        </CharString>
        <CharString name="ntilde">
          120 callgsubr
          158 -35 callsubr
          100 35 -5 -20 callgsubr
          -4 101 callsubr
          hintmask 1101110100000000
          473 743 rmoveto
          -94 callsubr
          hintmask 1100101010000000
          -101 callsubr
          hintmask 1101110100000000
          -91 callgsubr
          hintmask 1100110010000000
          -4 -743 rmoveto
          -63 callgsubr
          hintmask 1010110010000000
          -37 callgsubr
          hintmask 1100110010000000
          -41 callsubr
        </CharString>
        <CharString name="numbersign">
          198 21 -21 202 34 206 34 212 -20 hstem
          77 546 vstem
          369 hmoveto
          34 hlineto
          46 202 rlineto
          137 34 -129 hlineto
          48 206 rlineto
          118 34 -110 131 callsubr
          -201 131 callsubr
          -130 -34 122 hlineto
          -48 -206 rlineto
          -111 -34 103 hlineto
          -46 -202 rlineto
          34 hlineto
          46 202 rlineto
          201 hlineto
          56 240 rmoveto
          -48 -206 rlineto
          -201 hlineto
          48 206 rlineto
          endchar
        </CharString>
        <CharString name="o">
          -12 callgsubr
          136 callsubr
          290 -8 -105 callsubr
          endchar
        </CharString>
        <CharString name="oacute">
          -28 callgsubr
          264 605 -103 callsubr
          26 -618 -105 callsubr
          endchar
        </CharString>
        <CharString name="oacute.loclPLK">
          -28 callgsubr
          273 -29 callsubr
          17 -618 -105 callsubr
          endchar
        </CharString>
        <CharString name="obreve">
          -12 callgsubr
          84 28 hstem
          75 35 51 -34 callgsubr
          52 35 vstem
          418 -67 callsubr
          -128 -751 -105 callsubr
          endchar
        </CharString>
        <CharString name="ocircumflex">
          -12 callgsubr
          195 30 136 callsubr
          160 605 47 callsubr
          -618 -105 callsubr
          endchar
        </CharString>
        <CharString name="odieresis">
          -12 callgsubr
          152 61 hstem
          75 35 68 55 callgsubr
          69 35 vstem
          178 670 -85 callgsubr
          -68 -739 -105 callsubr
          endchar
        </CharString>
        <CharString name="oe">
          322 -40 callsubr
          hstem
          75 35 360 35 342 35 vstem
          882 256 rmoveto
          204 -11 58 -182 -123 -54 -24 -60 -24 vhcurveto
          65 -22 -54 19 -122 -21 callgsubr
          125 52 18 69 22 hvcurveto
          -67 26 56 -20 115 hhcurveto
          64 73 5 8 39 hvcurveto
          -86 callsubr
          -592 -219 rmoveto
          48 callgsubr
          396 462 rmoveto
          126 35 -19 -171 hvcurveto
          -21 -342 vlineto
          183 18 28 163 vhcurveto
          endchar
        </CharString>
        <CharString name="ogonek">
          -537 -196 32 hstem
          0 34 vstem
          98 -195 rmoveto
          14 callgsubr
        </CharString>
        <CharString name="ograve">
          -28 callgsubr
          298 605 -86 callgsubr
          118 -746 -105 callsubr
          endchar
        </CharString>
        <CharString name="ohorn">
          28 callgsubr
          hstemhm
          75 35 360 35 2 33 hintmask 00000000
          hintmask 10101010
          507 608 rmoveto
          -64 callsubr
          -59 hlineto
          hintmask 10011100
          -62 callgsubr
          hintmask 11001100
          63 callgsubr
          hintmask 11001010
          94 callsubr
          hintmask 10101010
          28 vlineto
          hintmask 10011100
          -69 callgsubr
          endchar
        </CharString>
        <CharString name="ohungarumlaut">
          -28 callgsubr
          185 -52 callsubr
          -88 -618 -105 callsubr
          endchar
        </CharString>
        <CharString name="omacron">
          -12 callgsubr
          188 36 hstem
          75 35 67 225 68 35 vstem
          177 706 -47 callgsubr
          113 -750 -105 callsubr
          endchar
        </CharString>
        <CharString name="one">
          -270 129 callsubr
          199 36 vstem
          199 hmoveto
          36 688 -29 hlineto
          -156 -88 rlineto
          -37 vlineto
          149 79 rlineto
          endchar
        </CharString>
        <CharString name="one.dnom">
          -414 21 -21 hstem
          114 37 vstem
          114 hmoveto
          105 callsubr
        </CharString>
        <CharString name="one.numr">
          -414 308 376 hstem
          114 37 vstem
          114 308 rmoveto
          105 callsubr
        </CharString>
        <CharString name="one.tnum">
          25 0 34 610 44 0 -20 hstemhm
          339 36 hintmask 10110000
          126 hmoveto
          449 34 -200 654 -29 hlineto
          hintmask 11010000
          -214 -107 rlineto
          -35 vlineto
          207 98 rlineto
          -610 -213 vlineto
          endchar
        </CharString>
        <CharString name="oneeighth">
          169 108 callgsubr
          141 33 263 109 callgsubr
          275 37 callgsubr
          hintmask 1011011100100000
          28 callsubr
          hintmask 0111101100100000
          12 callgsubr
          hintmask 1011011100100000
          60 -692 -17 callsubr
          hintmask 1011011011000000
          -57 callgsubr
          hintmask 1011011100100000
          -1 callsubr
          hintmask 1011011011000000
          -44 callsubr
          hintmask 1011011100100000
          -50 callgsubr
        </CharString>
        <CharString name="onehalf">
          141 0 34 308 34 268 109 callgsubr
          303 32 182 35 hintmask 11011110
          28 callsubr
          hintmask 11101110
          -87 -50 rlineto
          -35 vlineto
          79 41 rlineto
          401 44 rmoveto
          -449 -688 rlineto
          42 hlineto
          449 688 rlineto
          -74 -633 rmoveto
          41 -1 17 27 12 vhcurveto
          118 52 rlineto
          55 -43 callgsubr
          34 -217 vlineto
          endchar
        </CharString>
        <CharString name="onequarter">
          42 0 119 -33 33 525 109 callgsubr
          382 35 hintmask 01011100
          28 callsubr
          hintmask 10101100
          12 callgsubr
          14 -688 rmoveto
          36 hlineto
          hintmask 01011100
          30 callgsubr
        </CharString>
        <CharString name="ordfeminine">
          -233 316 29 153 31 136 31 hstem
          45 31 233 33 vstem
          178 316 rmoveto
          46 56 2 46 26 hvcurveto
          4 hlineto
          5 -44 rlineto
          27 239 hlineto
          112 -23 25 -121 -52 -48 -3 -5 -29 vhcurveto
          -32 vlineto
          5 25 56 4 38 hhcurveto
          104 17 -9 -101 hvcurveto
          -29 vlineto
          1 -53 -78 2 -22 hhcurveto
          -89 -22 -24 -82 -92 42 -15 91 hvcurveto
          -1 29 rmoveto
          -80 -21 15 63 64 18 11 69 hvcurveto
          146 -25 hlineto
          -32 -3 -27 -10 -25 vhcurveto
          -41 -16 -55 -3 -48 hhcurveto
          endchar
        </CharString>
        <CharString name="ordmasculine">
          -221 315 29 321 31 hstem
          50 33 248 33 vstem
          207 315 rmoveto
          148 9 30 159 158 -9 34 -148 -148 -9 -34 -158 -159 9 -30 148 hvcurveto
          29 vmoveto
          -124 0 25 135 134 0 27 124 124 0 -27 -134 -135 0 -25 -124 hvcurveto
          endchar
        </CharString>
        <CharString name="orn.001">
          -298 223 240 hstem
          48 241 vstem
          289 341 rmoveto
          105 -6 17 -117 -112 -6 -17 -105 -102 6 -16 112 117 6 16 102 vhcurveto
          endchar
        </CharString>
        <CharString name="orn.002">
          -86 234 60 100 60 hstem
          44 123 callgsubr
          100 60 vstem
          210 -25 callgsubr
          63 101 -14 callgsubr
          121 87 77 callsubr
          -29 -21 22 28 29 21 21 29 28 22 -21 -29 -28 -22 -22 -28 hvcurveto
          endchar
        </CharString>
        <CharString name="orn.003">
          -220 46 596 hstem
          45 123 callgsubr
          vstem
          211 -25 callgsubr
          63 101 -14 callgsubr
          63 101 26 callsubr
          endchar
        </CharString>
        <CharString name="orn.007">
          -298 222 241 hstem
          48 241 vstem
          168 222 rmoveto
          67 54 53 67 67 -54 54 -67 -67 -53 -54 -67 -67 53 -53 67 hvcurveto
          endchar
        </CharString>
        <CharString name="orn.010">
          159 94 callgsubr
          45 704 vstem
          397 hmoveto
          352 348 hlineto
          121 callsubr
          -207 -145 -143 -205 -204 145 -144 207 vhcurveto
          endchar
        </CharString>
        <CharString name="orn.015">
          -70 92 callgsubr
          -1 187 115 callgsubr
          187 60 -187 hlineto
          187 -272 rmoveto
          213 212 rlineto
          167 60 -192 hlineto
          -188 -187 rlineto
          endchar
        </CharString>
        <CharString name="orn.016">
          -70 92 callgsubr
          -1 567 115 callgsubr
          567 60 -567 hlineto
          endchar
        </CharString>
        <CharString name="orn.017">
          -575 129 callsubr
          0 60 vstem
          0 vmoveto
          60 688 -60 hlineto
          endchar
        </CharString>
        <CharString name="orn.018">
          157 46 596 hstem
          45 123 callgsubr
          102 123 callgsubr
          vstem
          211 -25 callgsubr
          370 hmoveto
          99 62 67 110 126 vvcurveto
          125 -67 111 -99 62 vhcurveto
          -32 -51 rlineto
          82 -51 56 -92 -104 vvcurveto
          -105 -55 -91 -83 -52 vhcurveto
          -275 51 -14 callgsubr
          244 hmoveto
          65 41 44 73 83 vvcurveto
          83 -44 73 -66 41 vhcurveto
          -32 -51 rlineto
          49 -31 33 -54 -61 vvcurveto
          -62 -33 -53 -48 -31 vhcurveto
          -149 50 26 callsubr
          118 hmoveto
          31 callgsubr
        </CharString>
        <CharString name="orn.019">
          -86 234 60 100 60 hstem
          44 60 100 123 callgsubr
          vstem
          338 -18 callsubr
          -89 36 77 callsubr
          -28 -22 22 28 29 22 21 28 29 21 -21 -29 -28 -21 -22 -29 hvcurveto
          endchar
        </CharString>
        <CharString name="orn.020">
          -220 46 596 hstem
          70 123 callgsubr
          vstem
          204 -18 callsubr
          -31 50 rmoveto
          31 callgsubr
        </CharString>
        <CharString name="orn.021">
          118 696 -20 hstem
          45 663 vstem
          376 -116 rmoveto
          193 100 139 201 179 vvcurveto
          188 -149 144 -183 -183 -148 -144 -188 -178 139 -202 192 -100 vhcurveto
          endchar
        </CharString>
        <CharString name="orn.022">
          -246 220 246 hstem
          48 301 vstem
          171 220 rmoveto
          98 80 83 40 40 -80 83 -98 -81 -42 -55 -68 -68 42 -55 81 hvcurveto
          endchar
        </CharString>
        <CharString name="oslash">
          -12 callgsubr
          136 callsubr
          455 487 -61 callsubr
        </CharString>
        <CharString name="oslashacute">
          -28 callgsubr
          426 738 -55 callsubr
          155 -118 -61 callsubr
        </CharString>
        <CharString name="otilde">
          -12 callgsubr
          130 119 callgsubr
          hintmask 00000000
          hintmask 11111011
          461 743 rmoveto
          -94 callsubr
          hintmask 11011101
          -101 callsubr
          hintmask 11111011
          -91 callgsubr
          hintmask 11011001
          -171 -751 -105 callsubr
          endchar
        </CharString>
        <CharString name="p">
          -39 -8 32 462 130 callsubr
          351 35 hintmask 11011000
          100 -200 rmoveto
          35 274 4 hlineto
          -60 24 59 -22 98 hhcurveto
          170 31 49 214 214 -31 49 -170 -80 -77 -11 -80 -28 hvcurveto
          -4 hlineto
          hintmask 10111000
          -3 83 rlineto
          -28 hlineto
          210 -486 rmoveto
          -89 -52 24 67 -23 hvcurveto
          -10 31 -1 47 62 vvcurveto
          hintmask 11011000
          60 0 47 14 42 vhcurveto
          59 19 54 23 88 hhcurveto
          153 23 -29 -202 hvcurveto
          hintmask 10111000
          -202 -23 -29 -153 vhcurveto
          endchar
        </CharString>
        <CharString name="paragraph">
          -78 688 -20 hstem
          319 36 66 36 vstem
          319 -144 rmoveto
          36 832 -36 hlineto
          -233 -11 -31 -203 -203 11 -29 233 hvcurveto
          102 -366 rmoveto
          36 832 -36 hlineto
          endchar
        </CharString>
        <CharString name="parenleft">
          -356 -150 893 hstem
          90 35 vstem
          226 -150 rmoveto
          33 hlineto
          -88 115 -46 54 278 vvcurveto
          278 46 53 88 115 vhcurveto
          -33 hlineto
          -102 -126 -34 -58 -262 vvcurveto
          -263 34 -58 102 -126 vhcurveto
          endchar
        </CharString>
        <CharString name="parenleft.ss02">
          46 callgsubr
          -204 145 -144 207 hvcurveto
          endchar
        </CharString>
        <CharString name="parenright">
          -356 -150 893 hstem
          154 35 vstem
          20 -150 rmoveto
          33 hlineto
          102 126 34 58 263 vvcurveto
          262 -34 58 -102 126 vhcurveto
          -33 hlineto
          88 -115 46 -53 -278 vvcurveto
          -278 -46 -54 -88 -115 vhcurveto
          endchar
        </CharString>
        <CharString name="parenright.ss02">
          -238 94 callgsubr
          0 352 vstem
          0 vmoveto
          207 145 144 204 121 callsubr
          hvcurveto
          endchar
        </CharString>
        <CharString name="partialdiff">
          -12 callgsubr
          95 callsubr
          39 -2 37 -9 67 hvcurveto
          -13 105 -68 143 -102 73 rrcurveto
          -43 -4 hlineto
          100 -77 45 -82 32 -96 -6 -2 rcurveline
          24 -33 -48 12 -68 -21 callgsubr
          hvcurveto
          -87 callgsubr
          -77 -155 -66 callsubr
          hvcurveto
          endchar
        </CharString>
        <CharString name="percent">
          160 -8 34 -5 -21 311 34 -2 34 285 34 -8 -20 hstemhm
          60 36 200 35 133 36 200 101 callsubr
          hintmask 0110101111000000
          196 311 47 callgsubr
          -44 -311 rmoveto
          42 hlineto
          hintmask 1010011111000000
          449 688 rlineto
          -42 hlineto
          -405 -343 rmoveto
          -90 -10 3 155 hvcurveto
          hintmask 1001101111000000
          144 callgsubr
          vhcurveto
          hintmask 1010011111000000
          -155 -10 -3 -90 vhcurveto
          hintmask 1001101111000000
          404 -353 47 callgsubr
          34 vmoveto
          -90 -10 3 155 144 callgsubr
          -155 -10 -3 -90 hvcurveto
          endchar
        </CharString>
        <CharString name="period">
          -459 0 65 hstem
          64 48 vstem
          64 hmoveto
          48 65 -48 hlineto
          endchar
        </CharString>
        <CharString name="periodcentered">
          -459 267 65 hstem
          64 48 vstem
          64 267 -77 callgsubr
        </CharString>
        <CharString name="perthousand">
          289 -8 34 -5 -21 294 34 32 34 268 34 -8 -20 hstemhm
          60 35 167 35 49 35 167 35 44 35 167 35 hintmask 1011101111110000
          179 360 rmoveto
          5 callgsubr
          hintmask 0101011100000000
          -109 -360 rmoveto
          42 hlineto
          461 688 rlineto
          -42 hlineto
          -352 -294 rmoveto
          -75 -9 2 132 hvcurveto
          hintmask 0000101100000000
          132 9 2 75 80 3 -2 -132 vhcurveto
          hintmask 0101011100000000
          -132 -9 -2 -74 vhcurveto
          hintmask 1010000011110000
          286 -402 rmoveto
          5 callgsubr
          281 hmoveto
          5 callgsubr
          -281 34 rmoveto
          68 callsubr
          281 hmoveto
          68 callsubr
          endchar
        </CharString>
        <CharString name="pi">
          -41 86 callgsubr
          hstem
          100 35 324 35 vstem
          459 hmoveto
          35 510 -394 -510 35 478 324 hlineto
          endchar
        </CharString>
        <CharString name="plus">
          -95 237 32 hstem
          253 32 vstem
          253 53 78 callgsubr
          endchar
        </CharString>
        <CharString name="plusminus">
          -95 0 32 336 32 hstem
          253 32 vstem
          253 184 78 callgsubr
          -183 -368 rmoveto
          74 callgsubr
          endchar
        </CharString>
        <CharString name="product">
          103 654 74 callsubr
          436 36 vstem
          587 -190 rmoveto
          36 878 -508 -878 36 844 436 hlineto
          endchar
        </CharString>
        <CharString name="q">
          -39 26 callgsubr
          -8 -20 92 callsubr
          hintmask 11011000
          461 -200 rmoveto
          35 hlineto
          hintmask 10111000
          710 -28 vlineto
          hintmask 11011000
          -3 -83 rlineto
          -4 hlineto
          80 -28 -77 11 -80 hhcurveto
          -170 -31 -49 -214 -214 31 -49 170 98 59 22 60 24 hvcurveto
          4 hlineto
          -175 -50 -31 callsubr
          153 88 54 -23 -53 17 hvcurveto
          16 -48 0 -47 -60 vvcurveto
          -62 -1 -47 -12 -37 vhcurveto
          -61 -21 -52 -24 -89 hhcurveto
          endchar
        </CharString>
        <CharString name="question">
          -46 callsubr
        </CharString>
        <CharString name="question.case">
          -46 callsubr
        </CharString>
        <CharString name="questiondown">
          -209 -186 34 597 65 hstemhm
          70 36 174 48 -42 36 hintmask 00000000
          hintmask 11110000
          280 445 20 callgsubr
          hintmask 11101000
          34 callgsubr
          hintmask 11110000
          -131 62 -28 138 vhcurveto
          endchar
        </CharString>
        <CharString name="questiondown.case">
          -139 -8 34 489 -20 128 65 hstemhm
          80 36 174 48 -42 36 hintmask 00000000
          hintmask 11111000
          290 623 20 callgsubr
          hintmask 11110100
          34 callgsubr
          hintmask 11111000
          -131 62 -28 138 vhcurveto
          endchar
        </CharString>
        <CharString name="quotedbl">
          -365 454 234 hstemhm
          65 39 62 39 hintmask 00000000
          hintmask 11100000
          114 callgsubr
          109 -145 rmoveto
          23 hlineto
          8 145 rlineto
          89 -39 -89 vlineto
          endchar
        </CharString>
        <CharString name="quotedblbase">
          -333 -101 21 80 65 hstem
          84 28 98 28 vstem
          34 -80 rmoveto
          -88 callsubr
          126 hmoveto
          79 callgsubr
        </CharString>
        <CharString name="quotedblleft">
          -333 522 65 80 21 hstem
          64 28 98 28 vstem
          64 522 24 callsubr
          126 -75 24 callsubr
          endchar
        </CharString>
        <CharString name="quotedblright">
          -333 522 21 80 65 hstem
          84 28 98 28 vstem
          34 543 rmoveto
          -88 callsubr
          126 hmoveto
          79 callgsubr
        </CharString>
        <CharString name="quoteleft">
          -459 522 65 80 21 hstem
          64 28 vstem
          64 522 24 callsubr
          endchar
        </CharString>
        <CharString name="quoteright">
          -459 522 21 80 65 hstem
          84 28 vstem
          34 543 rmoveto
          79 callgsubr
        </CharString>
        <CharString name="quotesinglbase">
          -459 -101 21 80 65 hstem
          84 28 vstem
          34 -80 rmoveto
          79 callgsubr
        </CharString>
        <CharString name="quotesingle">
          136 callgsubr
          39 vstem
          114 callgsubr
          endchar
        </CharString>
        <CharString name="r">
          41 callsubr
          hstemhm
          100 35 hintmask 11010000
          100 hmoveto
          -60 callgsubr
          hintmask 10110000
          73 callsubr
          endchar
        </CharString>
        <CharString name="racute">
          41 callsubr
          115 138 hstemhm
          100 35 hintmask 11011000
          154 605 -103 callsubr
          -54 -610 rmoveto
          -60 callgsubr
          hintmask 10111000
          73 callsubr
          endchar
        </CharString>
        <CharString name="radical">
          -68 -106 48 hstem
          30 527 vstem
          291 -106 rmoveto
          39 hlineto
          227 876 rlineto
          -36 hlineto
          -215 -828 -186 377 -90 -40 12 -31 60 27 rlineto
          endchar
        </CharString>
        <CharString name="rcaron">
          41 callsubr
          115 30 hstemhm
          100 35 hintmask 11011000
          148 -80 callsubr
          59 -738 rmoveto
          -60 callgsubr
          hintmask 10111000
          73 callsubr
          endchar
        </CharString>
        <CharString name="rcommaaccent">
          -294 25 callsubr
          83 -21 482 36 138 callgsubr
          -6 28 hintmask 11110100
          100 hmoveto
          -60 callgsubr
          hintmask 11101100
          73 callsubr
          hintmask 11110010
          -21 -717 52 callsubr
          hintmask 11110100
          -48 -65 hlineto
          hintmask 11110010
          36 callsubr
          endchar
        </CharString>
        <CharString name="registered">
          89 -8 26 293 30 158 30 141 26 hstem
          90 29 116 31 202 31 106 29 vstem
          362 696 rmoveto
          -267 -5 -39 -313 -313 5 -39 267 267 60 callgsubr
          -267 hvcurveto
          -678 46 callsubr
          137 402 rmoveto
          52 -4 57 -95 vhcurveto
          -165 -372 31 154 126 hlineto
          7 7 0 1 5 hvcurveto
          60 -155 rlineto
          36 hlineto
          -64 160 rlineto
          48 16 8 44 43 vvcurveto
          -108 -79 rmoveto
          -125 158 133 hlineto
          65 4 -33 -46 -45 -5 -34 -72 hvcurveto
          endchar
        </CharString>
        <CharString name="rightCloseDialog">
          -12 92 callgsubr
          -1 187 378 60 vstem
          624 688 rmoveto
          -625 -60 565 -568 -190 hlineto
          -188 -187 rlineto
          -85 vlineto
          213 212 rlineto
          165 hlineto
          60 hlineto
          -438 60 rmoveto
          -187 -60 187 hlineto
          endchar
        </CharString>
        <CharString name="rightOpenDialog">
          -11 92 callgsubr
          565 60 vstem
          625 688 rmoveto
          -626 -60 566 -568 -566 -60 566 hlineto
          60 hlineto
          endchar
        </CharString>
        <CharString name="ring">
          -350 612 124 callsubr
          hstem
          30 125 callsubr
          vstem
          142 612 -87 callsubr
          endchar
        </CharString>
        <CharString name="s">
          15 callgsubr
          hstem
          65 35 300 -42 callgsubr
          endchar
        </CharString>
        <CharString name="sacute">
          15 callgsubr
          87 138 111 callgsubr
          233 605 -103 callsubr
          21 -618 -95 callgsubr
          endchar
        </CharString>
        <CharString name="sacute.loclPLK">
          15 callgsubr
          87 138 111 callgsubr
          233 -29 callsubr
          21 -618 -95 callgsubr
          endchar
        </CharString>
        <CharString name="scaron">
          15 callgsubr
          87 30 111 callgsubr
          230 -80 callsubr
          131 -746 -95 callgsubr
          endchar
        </CharString>
        <CharString name="scedilla">
          15 callgsubr
          111 callgsubr
          435 133 rmoveto
          111 -22 17 -91 9 vhcurveto
          -143 14 rlineto
          -61 6 -18 9 81 vvcurveto
          102 58 4 83 66 41 -3 -10 59 vhcurveto
          33 vlineto
          7 -42 -62 5 -45 hhcurveto
          -124 -69 -11 -134 -87 22 -28 88 -9 hvcurveto
          148 -14 rlineto
          59 -6 18 -4 -92 vvcurveto
          -78 -16 -31 -116 -69 -26 2 10 -92 vhcurveto
          -33 vlineto
          41 -5 62 -5 50 -1 -53 -177 rcurveline
          -5 40 vlineto
          42 182 rlineto
          122 1 50 26 114 vvcurveto
          endchar
        </CharString>
        <CharString name="scircumflex">
          15 callgsubr
          195 30 111 callgsubr
          120 -82 callgsubr
          134 -618 -95 callgsubr
          endchar
        </CharString>
        <CharString name="scommaaccent">
          -135 25 callsubr
          54 44 callgsubr
          hstem
          65 35 161 28 111 -42 callgsubr
          -43 -199 rmoveto
          79 callgsubr
        </CharString>
        <CharString name="second">
          -334 688 -20 hstem
          65 44 88 44 vstem
          55 394 71 callsubr
          112 -294 71 callsubr
          endchar
        </CharString>
        <CharString name="section">
          64 -171 34 213 29 314 30 213 34 hstem
          70 36 53 36 309 36 53 36 vstem
          326 -171 rmoveto
          140 74 24 118 37 0 38 -21 30 hvcurveto
          100 1 10 96 68 vvcurveto
          88 -42 23 -122 33 vhcurveto
          -168 45 rlineto
          -87 23 -15 19 85 vvcurveto
          101 72 4 111 48 66 -4 -6 46 vhcurveto
          33 vlineto
          6 -38 -70 5 -57 hhcurveto
          -140 -74 -24 -118 -38 0 -38 21 -29 hvcurveto
          -101 -2 -9 -95 -68 vvcurveto
          -88 42 -23 136 -36 vhcurveto
          179 -48 rlineto
          62 -17 15 -19 -85 vvcurveto
          -101 -72 -4 -111 -48 -66 4 6 -46 vhcurveto
          -33 vlineto
          -6 38 70 -5 57 hhcurveto
          184 276 rmoveto
          -15 -18 6 10 -37 hvcurveto
          -262 70 rlineto
          -60 16 -12 20 70 vvcurveto
          85 29 37 54 15 18 -6 -11 40 vhcurveto
          273 -73 rlineto
          46 -12 12 -20 -70 vvcurveto
          -85 -29 -37 -54 vhcurveto
          endchar
        </CharString>
        <CharString name="semicolon">
          -459 -101 21 80 65 380 65 hstem
          84 28 vstem
          64 137 callsubr
          -30 -590 rmoveto
          79 callgsubr
        </CharString>
        <CharString name="seven">
          -77 21 -21 654 34 hstem
          45 455 vstem
          161 hmoveto
          41 hlineto
          298 659 rlineto
          29 -455 -34 413 vlineto
          endchar
        </CharString>
        <CharString name="seven.dnom">
          -304 21 -21 343 33 hstem
          26 273 vstem
          89 hmoveto
          41 hlineto
          71 callgsubr
          endchar
        </CharString>
        <CharString name="seven.numr">
          -304 651 33 hstem
          26 273 vstem
          89 308 rmoveto
          41 hlineto
          71 callgsubr
          endchar
        </CharString>
        <CharString name="seven.tnum">
          25 21 -21 654 34 hstem
          82 495 vstem
          218 hmoveto
          41 hlineto
          318 659 rlineto
          29 -495 -34 453 vlineto
          endchar
        </CharString>
        <CharString name="seveneighths">
          176 108 callgsubr
          141 33 270 33 4 -20 hstemhm
          459 37 callgsubr
          hintmask 0000000000000000
          hintmask 0111011001000000
          101 hmoveto
          0 callsubr
          -461 -380 rmoveto
          41 hlineto
          hintmask 1011101001000000
          71 callgsubr
          353 -655 -17 callsubr
          hintmask 1011100110000000
          -57 callgsubr
          hintmask 1011101001000000
          -1 callsubr
          hintmask 1011100110000000
          -44 callsubr
          hintmask 1011101001000000
          -50 callgsubr
        </CharString>
        <CharString name="six">
          13 -8 34 337 34 265 34 hstem
          90 36 426 36 vstem
          350 115 callsubr
          -146 -46 -24 -28 -23 hvcurveto
          -6 hlineto
          271 26 46 213 51 75 -5 -7 59 vhcurveto
          32 vlineto
          8 -68 -78 6 -47 hhcurveto
          -143 -73 -22 -101 -32 hvcurveto
          -16 -52 -3 -78 -109 vvcurveto
          -108 2 -74 12 -40 vhcurveto
          -108 31 23 callsubr
        </CharString>
        <CharString name="six.dnom">
          -257 -4 100 callsubr
          -4 -38 callgsubr
        </CharString>
        <CharString name="six.numr">
          -257 304 100 callsubr
          304 -38 callgsubr
        </CharString>
        <CharString name="six.ss01">
          26 -8 34 338 34 290 -20 hstem
          75 36 439 36 vstem
          332 -8 rmoveto
          196 58 52 152 167 -53 35 -179 -130 -52 -13 -28 -29 hvcurveto
          -6 1 39 102 82 101 156 122 rlinecurve
          5 -47 vlineto
          -200 -157 -92 -151 -169 vvcurveto
          -184 62 -35 195 vhcurveto
          -2 34 rmoveto
          -164 -55 17 172 128 69 21 150 156 64 0 -169 -135 -45 -34 -175 hvcurveto
          endchar
        </CharString>
        <CharString name="six.tnum">
          25 -8 34 337 34 265 34 hstem
          82 36 426 36 vstem
          342 115 callsubr
          -124 -61 -16 -36 -30 hvcurveto
          -6 hlineto
          271 26 46 213 53 75 -5 -7 57 vhcurveto
          32 vlineto
          8 -63 -80 6 -50 hhcurveto
          -143 -73 -22 -93 -29 hvcurveto
          -19 -60 -3 -78 -109 vvcurveto
          -108 2 -74 14 -47 vhcurveto
          -101 29 23 callsubr
        </CharString>
        <CharString name="slash">
          140 callgsubr
          -55 vmoveto
          37 hlineto
          291 798 rlineto
          -38 hlineto
          endchar
        </CharString>
        <CharString name="space">
          -411 endchar
        </CharString>
        <CharString name="sterling">
          -54 0 34 307 34 287 34 hstem
          134 36 vstem
          170 34 rmoveto
          307 274 34 -274 vlineto
          124 6 107 57 33 vhcurveto
          20 35 52 3 74 hhcurveto
          32 55 -5 -6 38 hvcurveto
          32 vlineto
          8 -31 -59 5 -50 hhcurveto
          -210 -35 -59 -262 hvcurveto
          -74 -34 74 -307 -74 -34 471 34 hlineto
          endchar
        </CharString>
        <CharString name="summation">
          73 -190 34 810 34 hstem
          100 508 vstem
          100 -190 rmoveto
          508 34 -461 hlineto
          323 405 -323 405 rlineto
          461 34 -508 -30 hlineto
          324 -409 -324 -409 rlineto
          endchar
        </CharString>
        <CharString name="t">
          -306 86 callgsubr
          hstem
          138 35 vstem
          138 hmoveto
          -2 callgsubr
          endchar
        </CharString>
        <CharString name="tbar">
          -306 21 -21 256 32 190 32 hstem
          138 35 vstem
          299 478 rmoveto
          32 -126 148 -35 -148 -108 -32 108 -190 -104 -32 104 -256 35 256 126 32 -126 190 vlineto
          endchar
        </CharString>
        <CharString name="tcaron">
          -306 86 callgsubr
          178 -20 hstem
          138 35 178 39 vstem
          339 454 22 callgsubr
          -213 -599 rmoveto
          -2 callgsubr
          endchar
        </CharString>
        <CharString name="thorn">
          -39 26 callgsubr
          hstem
          100 35 351 35 vstem
          100 -190 rmoveto
          35 264 4 hlineto
          -60 24 59 -22 98 hhcurveto
          56 callsubr
          210 -719 rmoveto
          -89 -52 24 71 -24 hvcurveto
          -9 27 -1 47 62 vvcurveto
          60 0 47 12 37 vhcurveto
          64 21 54 23 88 101 callgsubr
        </CharString>
        <CharString name="three">
          -39 -8 34 306 34 296 34 hstemhm
          467 36 -28 36 hintmask 11110000
          259 -48 callsubr
        </CharString>
        <CharString name="three.dnom">
          -283 -4 33 145 33 106 callsubr
          hintmask 11101000
          154 -4 113 callgsubr
          hintmask 11110000
          -10 callsubr
          -58 -40 -12 -40 hvcurveto
          -80 -33 hlineto
          hintmask 11101000
          24 callgsubr
          -5 33 50 -3 34 hhcurveto
          endchar
        </CharString>
        <CharString name="three.numr">
          -283 304 33 145 33 -14 14 106 callsubr
          hintmask 11010100
          154 304 rmoveto
          125 26 35 69 hvcurveto
          hintmask 10110100
          62 -28 22 -45 7 vhcurveto
          2 vlineto
          hintmask 10111000
          -10 callsubr
          hvcurveto
          hintmask 11011000
          -58 -40 -12 -40 vhcurveto
          -80 -33 hlineto
          hintmask 11010100
          24 callgsubr
          -5 33 50 -3 34 hhcurveto
          endchar
        </CharString>
        <CharString name="three.tnum">
          25 -8 34 306 34 296 34 hstemhm
          511 36 -28 36 hintmask 11110000
          303 -48 callsubr
        </CharString>
        <CharString name="threeeighths">
          247 108 callgsubr
          97 33 11 33 101 33 -14 14 106 callsubr
          225 37 callgsubr
          hintmask 0000000000000000
          hintmask 1011101101100100
          154 304 113 callgsubr
          hintmask 1010101110100100
          -10 callsubr
          hvcurveto
          hintmask 1010110110100100
          -58 -40 -12 -40 vhcurveto
          -80 -33 hlineto
          hintmask 1011110101100100
          24 callgsubr
          hintmask 1011101101100100
          93 callgsubr
          hintmask 0110110101100100
          18 -304 rmoveto
          0 callsubr
          hintmask 1010110101100100
          61 -692 -17 callsubr
          hintmask 1010110101011000
          -57 callgsubr
          hintmask 1010110101100100
          -1 callsubr
          hintmask 1010110101011000
          -44 callsubr
          hintmask 1010110101100100
          -50 callgsubr
        </CharString>
        <CharString name="threequarters">
          156 0 119 -33 33 192 33 147 31 140 34 -8 -20 hstemhm
          269 35 -31 36 331 35 hintmask 0111100110000000
          60 352 65 callsubr
          hintmask 0111101010000000
          -53 callgsubr
          hintmask 0111100110000000
          10 callgsubr
          hintmask 1011010110000000
          122 -352 rmoveto
          0 callsubr
          8 -688 rmoveto
          36 hlineto
          hintmask 0111100110000000
          30 callgsubr
        </CharString>
        <CharString name="tilde">
          -252 648 -35 callsubr
          20 -20 callgsubr
          hintmask 00000000
          hintmask 11110000
          363 -7 callsubr
        </CharString>
        <CharString name="tildecomb">
          648 -35 callsubr
          -363 -20 callgsubr
          hintmask 00000000
          hintmask 11110000
          -20 -7 callsubr
        </CharString>
        <CharString name="tildecomb.case">
          793 -35 callsubr
          -363 -20 callgsubr
          hintmask 00000000
          hintmask 11110000
          -20 102 callsubr
          hintmask 01110000
          -101 callsubr
          hintmask 11110000
          -91 callgsubr
          endchar
        </CharString>
        <CharString name="trademark">
          79 385 38 244 21 hstem
          138 23 161 22 257 23 vstem
          138 385 rmoveto
          23 282 101 21 -223 -21 99 hlineto
          184 -282 rmoveto
          22 246 4 hlineto
          116 -246 rlineto
          17 hlineto
          116 248 rlineto
          4 -248 23 303 -25 hlineto
          -123 -265 rlineto
          -4 hlineto
          -125 265 rlineto
          -25 hlineto
          endchar
        </CharString>
        <CharString name="two">
          -27 0 34 628 34 hstem
          80 36 376 36 vstem
          116 100 rmoveto
          42 0 26 6 28 vhcurveto
          5 21 -31 callgsubr
        </CharString>
        <CharString name="two.dnom">
          -276 0 128 callsubr
          62 -32 callgsubr
        </CharString>
        <CharString name="two.numr">
          -276 308 128 callsubr
          370 -32 callgsubr
        </CharString>
        <CharString name="two.tnum">
          25 0 34 628 34 hstem
          107 36 376 36 vstem
          143 100 rmoveto
          42 0 26 6 26 vhcurveto
          5 23 -31 callgsubr
        </CharString>
        <CharString name="u">
          -40 callgsubr
          130 callgsubr
          hintmask 00000000
          hintmask 01111000
          476 hmoveto
          28 510 -35 -264 hlineto
          hintmask 10111000
          -102 callgsubr
          38 44 47 16 vhcurveto
          4 hlineto
          endchar
        </CharString>
        <CharString name="uacute">
          -9 callgsubr
          282 605 -103 callsubr
          hintmask 01111100
          194 -610 -49 callgsubr
          hintmask 10111100
          -102 callgsubr
          38 44 47 16 vhcurveto
          4 hlineto
          endchar
        </CharString>
        <CharString name="ubreve">
          -40 callgsubr
          112 28 hstemhm
          100 35 38 -34 callgsubr
          39 35 hintmask 10111111
          430 -67 callsubr
          hintmask 01111111
          46 -743 -49 callgsubr
          hintmask 10111111
          -102 callgsubr
          38 44 47 16 vhcurveto
          4 hlineto
          endchar
        </CharString>
        <CharString name="ucircumflex">
          -40 callgsubr
          223 30 130 callgsubr
          hintmask 10111100
          172 -82 callgsubr
          hintmask 01111100
          304 -610 -49 callgsubr
          hintmask 10111100
          -102 callgsubr
          38 44 47 16 vhcurveto
          4 hlineto
          endchar
        </CharString>
        <CharString name="udieresis">
          -40 callgsubr
          180 61 145 callsubr
          hintmask 10111111
          190 670 -85 callgsubr
          hintmask 01111111
          106 -731 -49 callgsubr
          hintmask 10111111
          -102 callgsubr
          38 44 47 16 vhcurveto
          4 hlineto
          endchar
        </CharString>
        <CharString name="ugrave">
          -9 callgsubr
          303 605 -86 callgsubr
          hintmask 01111100
          299 -738 -49 callgsubr
          hintmask 10111100
          -102 callgsubr
          38 44 47 16 vhcurveto
          4 hlineto
          endchar
        </CharString>
        <CharString name="uhorn">
          59 callsubr
          130 callgsubr
          74 33 hintmask 10111100
          578 608 rmoveto
          -64 callsubr
          -59 -264 hlineto
          -102 callgsubr
          38 44 47 16 vhcurveto
          4 hlineto
          hintmask 01111100
          -20 callsubr
          endchar
        </CharString>
        <CharString name="uhungarumlaut">
          -9 callgsubr
          197 -52 callsubr
          hintmask 01111100
          86 -610 -49 callgsubr
          hintmask 10111100
          -102 callgsubr
          38 44 47 16 vhcurveto
          4 hlineto
          endchar
        </CharString>
        <CharString name="umacron">
          -40 callgsubr
          216 36 hstemhm
          100 35 54 225 55 35 hintmask 10111110
          189 706 -47 callgsubr
          hintmask 01111110
          287 -742 -49 callgsubr
          hintmask 10111110
          -102 callgsubr
          38 44 47 16 vhcurveto
          4 hlineto
          endchar
        </CharString>
        <CharString name="underscore">
          -295 -160 105 callgsubr
          endchar
        </CharString>
        <CharString name="underscoredbl">
          -295 -249 32 57 105 callgsubr
          -121 vmoveto
          340 32 -340 hlineto
          endchar
        </CharString>
        <CharString name="uni00AD">
          66 callsubr
        </CharString>
        <CharString name="uni00B2">
          -284 320 34 308 34 hstem
          51 32 182 35 vstem
          83 375 rmoveto
          47 0 11 29 13 vhcurveto
          39 17 42 19 35 15 rrcurveto
          54 -43 callgsubr
          34 -217 vlineto
          endchar
        </CharString>
        <CharString name="uni00B3">
          -295 311 33 147 31 140 34 hstemhm
          248 35 -31 36 hintmask 11101000
          148 311 rmoveto
          118 22 38 70 49 -23 25 -28 13 hvcurveto
          4 vlineto
          hintmask 11110000
          -53 callgsubr
          hintmask 11101000
          10 callgsubr
          90 callsubr
          endchar
        </CharString>
        <CharString name="uni00B5">
          -30 callsubr
        </CharString>
        <CharString name="uni00B9">
          -417 688 -20 hstem
          110 34 vstem
          28 callsubr
          -87 -50 rlineto
          -35 vlineto
          79 41 rlineto
          endchar
        </CharString>
        <CharString name="uni0162">
          -53 21 107 callsubr
          40 688 rmoveto
          -34 233 -654 118 callsubr
          4 654 233 34 hlineto
          endchar
        </CharString>
        <CharString name="uni0163">
          -306 86 callgsubr
          hstem
          138 35 vstem
          173 510 rmoveto
          148 -35 -148 -108 -32 108 -478 118 callsubr
          3 478 126 32 hlineto
          endchar
        </CharString>
        <CharString name="uni018F">
          71 -8 34 305 34 297 34 hstem
          90 36 454 36 vstem
          339 696 rmoveto
          -56 -74 -8 -12 -46 hvcurveto
          -34 vlineto
          12 45 69 8 52 hhcurveto
          221 29 -24 -273 1 hvcurveto
          -490 -21 hlineto
          -313 15 -39 248 248 15 39 313 318 -40 34 -237 vhcurveto
          14 -670 rmoveto
          -205 -21 6 299 -1 hvcurveto
          454 hlineto
          -299 -1 -21 -6 -205 hhcurveto
          endchar
        </CharString>
        <CharString name="uni019D">
          103 -200 30 170 58 callgsubr
          62 callgsubr
          hintmask 10101110
          588 688 rmoveto
          hintmask 11001110
          -622 -4 vlineto
          -434 622 rlineto
          -35 -801 hlineto
          -45 -9 -12 -93 vhcurveto
          -30 vlineto
          93 44 5 92 hvcurveto
          hintmask 10110110
          725 4 vlineto
          434 -622 rlineto
          35 688 hlineto
          endchar
        </CharString>
        <CharString name="uni01C4">
          659 103 callgsubr
          971 -84 callsubr
          -749 -883 rmoveto
          -26 callsubr
        </CharString>
        <CharString name="uni01C5">
          554 0 32 446 32 95 30 19 34 hstemhm
          -24 callsubr
          416 36 hintmask 00000000
          hintmask 11111100
          930 -80 callsubr
          -708 -738 rmoveto
          -13 callsubr
          hvcurveto
          hintmask 11011100
          45 callgsubr
          vhcurveto
          -205 hlineto
          36 -654 -53 callsubr
          448 -34 rmoveto
          -76 callsubr
          endchar
        </CharString>
        <CharString name="uni01C6">
          457 -8 32 -24 32 446 32 -24 32 87 30 92 callsubr
          hintmask 00000000
          hintmask 10100110
          13 callgsubr
          hintmask 01010110
          -43 callsubr
          hintmask 10100110
          -214 31 -49 170 vhcurveto
          hintmask 01101110
          550 613 -97 callsubr
          -68 -738 rmoveto
          -76 callsubr
          hintmask 10010110
          -365 -4 -70 callgsubr
          endchar
        </CharString>
        <CharString name="uni01C7">
          225 72 callsubr
          568 36 9 callsubr
          461 -654 -65 callsubr
        </CharString>
        <CharString name="uni01C8">
          136 -200 30 170 34 476 -20 192 61 -55 -20 hstemhm
          -24 callsubr
          481 111 callsubr
          hintmask 11110110
          632 682 rmoveto
          43 61 -43 hlineto
          -517 -743 rmoveto
          122 callgsubr
          hlineto
          hintmask 11101101
          654 -36 vlineto
          419 -888 -59 callsubr
        </CharString>
        <CharString name="uni01C9">
          103 callsubr
          100 35 196 43 -39 35 hintmask 11111010
          82 callsubr
          hintmask 11111100
          231 -61 rmoveto
          43 61 -43 hlineto
          hintmask 11111010
          -98 -943 -59 callsubr
        </CharString>
        <CharString name="uni01CA">
          427 0 34 -34 66 556 66 0 -20 62 callgsubr
          298 36 hintmask 10011110
          588 hmoveto
          35 688 -35 hlineto
          hintmask 01011110
          -622 -4 vlineto
          -434 622 rlineto
          -35 hlineto
          hintmask 10101110
          -688 35 622 4 vlineto
          624 -588 -65 callsubr
        </CharString>
        <CharString name="uni01CB">
          338 -200 30 170 66 -45 50 callgsubr
          132 66 -6 61 -55 -20 62 callgsubr
          211 43 -39 101 callsubr
          hintmask 1011010111000000
          834 682 rmoveto
          43 61 -43 hlineto
          -246 -743 rmoveto
          35 hlineto
          hintmask 1101001110100000
          688 -35 -55 callgsubr
          hintmask 1011100110100000
          622 4 vlineto
          582 -822 -59 callsubr
        </CharString>
        <CharString name="uni01CC">
          204 -200 30 191 -21 486 32 -8 -20 192 61 130 callgsubr
          196 43 -39 101 callsubr
          hintmask 1110111100000000
          700 682 rmoveto
          43 61 -43 hlineto
          -231 -743 rmoveto
          -63 callgsubr
          hintmask 1101111010000000
          -37 callgsubr
          hintmask 1110111010000000
          -68 callgsubr
          133 -515 rmoveto
          93 44 5 92 hvcurveto
          hintmask 1101111010000000
          613 -35 -623 vlineto
          -45 -9 -12 -93 vhcurveto
          endchar
        </CharString>
        <CharString name="uni01CD">
          -69 callsubr
          62 30 112 callsubr
          319 -84 callsubr
          392 -883 -99 callgsubr
        </CharString>
        <CharString name="uni01CD.ss01">
          146 callgsubr
          30 44 callsubr
          336 -84 callsubr
          347 -883 -102 callsubr
        </CharString>
        <CharString name="uni01CE">
          -75 callgsubr
          87 30 54 callgsubr
          hintmask 10111110
          264 -80 callsubr
          92 -746 rmoveto
          -71 callsubr
          hintmask 01111110
          -107 callgsubr
          hintmask 10111110
          -98 callsubr
          endchar
        </CharString>
        <CharString name="uni01CF">
          6 callgsubr
          82 30 -48 callgsubr
          vstem
          110 -84 callsubr
          112 -883 -2 callsubr
        </CharString>
        <CharString name="uni01D0">
          22 callsubr
          115 30 hstem
          100 35 vstem
          95 -80 callsubr
          112 -738 -21 callsubr
        </CharString>
        <CharString name="uni01D1">
          91 144 callsubr
          474 36 vstem
          340 -84 callsubr
          130 -891 -105 callgsubr
          endchar
        </CharString>
        <CharString name="uni01D2">
          -55 143 callsubr
          360 35 vstem
          267 -80 callsubr
          130 -746 -105 callsubr
          endchar
        </CharString>
        <CharString name="uni01D3">
          -25 callsubr
          82 30 44 callsubr
          336 -84 callsubr
          347 -195 rmoveto
          -424 vlineto
          -101 callgsubr
          394 vlineto
          endchar
        </CharString>
        <CharString name="uni01D4">
          -31 -8 32 -3 -21 510 145 callgsubr
          hintmask 10111100
          279 -80 callsubr
          hintmask 01111100
          304 -738 -49 callgsubr
          hintmask 10111100
          -102 callgsubr
          38 44 47 16 vhcurveto
          4 hlineto
          endchar
        </CharString>
        <CharString name="uni01D5">
          -25 callsubr
          147 61 103 36 hstemhm
          105 36 106 43 -42 225 -46 43 106 36 hintmask 0000000000000000
          hintmask 1111101010000000
          248 979 -47 callgsubr
          hintmask 1111110110000000
          -1 -200 12 callsubr
          -188 rmoveto
          -424 vlineto
          -101 callgsubr
          394 vlineto
          endchar
        </CharString>
        <CharString name="uni01D6">
          -40 callgsubr
          180 61 136 36 hstemhm
          100 35 55 43 -42 225 -46 43 56 101 callsubr
          hintmask 1011110101000000
          191 867 -47 callgsubr
          hintmask 0111111011000000
          -1 -233 -85 callgsubr
          106 -731 -49 callgsubr
          hintmask 1011111011000000
          -102 callgsubr
          38 44 47 16 vhcurveto
          4 hlineto
          endchar
        </CharString>
        <CharString name="uni01D7">
          -25 callsubr
          147 61 2 138 49 callgsubr
          341 878 -103 callsubr
          hintmask 11101111
          -94 -68 12 callsubr
          -188 rmoveto
          -424 vlineto
          -101 callgsubr
          394 vlineto
          endchar
        </CharString>
        <CharString name="uni01D8">
          -40 callgsubr
          180 61 35 138 145 callsubr
          hintmask 1011111110000000
          287 766 -103 callsubr
          -97 -101 -85 callgsubr
          hintmask 0111111110000000
          106 -731 -49 callgsubr
          hintmask 1011111110000000
          -102 callgsubr
          38 44 47 16 vhcurveto
          4 hlineto
          endchar
        </CharString>
        <CharString name="uni01D9">
          -25 callsubr
          147 61 2 30 49 callgsubr
          338 878 -97 callsubr
          hintmask 11101111
          16 -196 12 callsubr
          -188 rmoveto
          -424 vlineto
          -101 callgsubr
          394 vlineto
          endchar
        </CharString>
        <CharString name="uni01DA">
          -40 callgsubr
          180 61 35 30 145 callsubr
          hintmask 1011111110000000
          281 766 -97 callsubr
          16 -229 -85 callgsubr
          hintmask 0111111110000000
          106 -731 -49 callgsubr
          hintmask 1011111110000000
          -102 callgsubr
          38 44 47 16 vhcurveto
          4 hlineto
          endchar
        </CharString>
        <CharString name="uni01DB">
          -25 callsubr
          147 61 2 138 49 callgsubr
          360 878 -86 callgsubr
          hintmask 11101111
          13 -196 12 callsubr
          -188 rmoveto
          -424 vlineto
          -101 callgsubr
          394 vlineto
          endchar
        </CharString>
        <CharString name="uni01DC">
          -40 callgsubr
          180 61 35 138 145 callsubr
          hintmask 1011111110000000
          304 766 -86 callgsubr
          12 -229 -85 callgsubr
          hintmask 0111111110000000
          106 -731 -49 callgsubr
          hintmask 1011111110000000
          -102 callgsubr
          38 44 47 16 vhcurveto
          4 hlineto
          endchar
        </CharString>
        <CharString name="uni01EA">
          91 122 callsubr
          110 callgsubr
          305 34 135 36 vstem
          507 21 callsubr
          21 23 49 46 62 51 29 hvcurveto
          68 39 6 89 196 vvcurveto
          127 callsubr
          -313 16 -39 257 58 46 2 7 36 vhcurveto
          -44 -40 -28 -46 -42 vvcurveto
          -37 21 -32 55 vhcurveto
          -144 222 rmoveto
          -217 -20 6 312 312 20 6 -15 callsubr
          -6 -312 -312 -20 -6 -217 hvcurveto
          endchar
        </CharString>
        <CharString name="uni01EB">
          -55 122 callsubr
          87 callgsubr
          hstem
          75 35 238 34 88 35 vstem
          290 518 rmoveto
          -203 -12 -47 -217 -217 12 -45 203 46 36 2 6 28 hvcurveto
          -30 -37 -22 -47 -41 vvcurveto
          -40 21 -31 -45 callgsubr
          -35 -12 20 26 48 42 68 34 28 hvcurveto
          43 35 4 68 125 vvcurveto
          -33 callgsubr
          vhcurveto
          -494 35 callgsubr
        </CharString>
        <CharString name="uni01F1">
          659 0 34 620 74 callsubr
          416 36 146 callsubr
          -26 callsubr
        </CharString>
        <CharString name="uni01F2">
          554 0 32 446 32 144 74 callsubr
          416 6 callsubr
          448 -34 rmoveto
          -76 callsubr
          endchar
        </CharString>
        <CharString name="uni01F3">
          457 -8 32 -24 32 446 32 -24 32 92 callsubr
          hintmask 00000000
          hintmask 10101100
          13 callgsubr
          hintmask 01011100
          -43 callsubr
          hintmask 10101100
          -214 31 -49 170 vhcurveto
          hintmask 01101100
          375 8 rmoveto
          -76 callsubr
          hintmask 10011100
          -365 -4 -70 callgsubr
          endchar
        </CharString>
        <CharString name="uni01F4">
          43 callgsubr
          54 138 hstem
          90 36 421 36 vstem
          322 750 -103 callsubr
          225 -440 -93 callsubr
          endchar
        </CharString>
        <CharString name="uni01F4.ss01">
          25 callgsubr
          54 138 hstem
          90 36 451 36 vstem
          329 750 -103 callsubr
          42 -763 -94 callgsubr
          endchar
        </CharString>
        <CharString name="uni01F5">
          -27 callgsubr
          115 138 92 callsubr
          hintmask 11101110
          281 605 -103 callsubr
          -1 -816 15 callsubr
          hintmask 11011110
          438 -28 vlineto
          hintmask 11101110
          -97 callgsubr
        </CharString>
        <CharString name="uni0200">
          -69 callsubr
          62 138 112 callsubr
          270 27 callsubr
          220 hmoveto
          -95 callsubr
          168 -750 -99 callgsubr
        </CharString>
        <CharString name="uni0200.ss01">
          79 callsubr
          287 27 callsubr
          220 hmoveto
          -95 callsubr
          123 -750 -102 callsubr
        </CharString>
        <CharString name="uni0201">
          -75 callgsubr
          87 138 54 callgsubr
          hintmask 10111110
          215 5 callsubr
          220 hmoveto
          -95 callsubr
          -132 -613 rmoveto
          -71 callsubr
          hintmask 01111110
          -107 callgsubr
          hintmask 10111110
          -98 callsubr
          endchar
        </CharString>
        <CharString name="uni0202">
          -69 callsubr
          178 28 hstem
          213 -34 callgsubr
          vstem
          213 753 -82 callsubr
          391 -753 -99 callgsubr
        </CharString>
        <CharString name="uni0202.ss01">
          -67 callgsubr
          170 28 hstem
          105 36 89 -34 callgsubr
          89 36 vstem
          230 753 -82 callsubr
          346 -753 -102 callsubr
        </CharString>
        <CharString name="uni0203">
          -75 callgsubr
          203 28 140 callsubr
          hintmask 1011111010000000
          158 608 -10 callgsubr
          vhcurveto
          hintmask 1011111110000000
          96 1 -38 -75 hvcurveto
          31 hlineto
          82 0 59 -128 vhcurveto
          hintmask 1011111010000000
          -128 -1 -59 -82 hvcurveto
          91 -616 rmoveto
          -71 callsubr
          hintmask 0111111010000000
          -107 callgsubr
          hintmask 1011111010000000
          -98 callsubr
          endchar
        </CharString>
        <CharString name="uni0204">
          27 callgsubr
          256 27 callsubr
          220 hmoveto
          -95 callsubr
          -307 -750 rmoveto
          -89 callgsubr
          endchar
        </CharString>
        <CharString name="uni0205">
          21 callgsubr
          209 5 callsubr
          220 hmoveto
          -95 callsubr
          112 -349 -106 callsubr
          endchar
        </CharString>
</ttFont>
